BenchTwelve.ufo
<glyph name="percent" format="1">
  <advance width="2728"/>
  <unicode hex="0025"/>
  <outline>
    <contour>
      <point x="909" y="-82" type="curve" smooth="yes"/>
      <point x="1075" y="-82" type="line" smooth="yes"/>
      <point x="1121" y="-82"/>
      <point x="1164" y="-54"/>
      <point x="1183" y="-12" type="curve" smooth="yes"/>
      <point x="1837" y="1466" type="line" smooth="yes"/>
      <point x="1852" y="1499"/>
      <point x="1828" y="1536"/>
      <point x="1791" y="1536" type="curve" smooth="yes"/>
      <point x="1626" y="1536" type="line" smooth="yes"/>
      <point x="1580" y="1536"/>
      <point x="1536" y="1508"/>
      <point x="1518" y="1466" type="curve" smooth="yes"/>
      <point x="863" y="-12" type="line" smooth="yes"/>
      <point x="848" y="-45"/>
      <point x="872" y="-82"/>
    </contour>
    <contour>
      <point x="611" y="729" type="curve" smooth="yes"/>
      <point x="498" y="729"/>
      <point x="443" y="834"/>
      <point x="443" y="1018" type="curve" smooth="yes"/>
      <point x="443" y="1206"/>
      <point x="502" y="1317"/>
      <point x="611" y="1317" type="curve" smooth="yes"/>
      <point x="719" y="1317"/>
      <point x="779" y="1206"/>
      <point x="779" y="1018" type="curve" smooth="yes"/>
      <point x="779" y="834"/>
      <point x="724" y="729"/>
    </contour>
    <contour>
      <point x="611" y="549" type="curve" smooth="yes"/>
      <point x="908" y="549"/>
      <point x="1059" y="788"/>
      <point x="1059" y="1026" type="curve" smooth="yes"/>
      <point x="1059" y="1262"/>
      <point x="912" y="1497"/>
      <point x="611" y="1497" type="curve" smooth="yes"/>
      <point x="310" y="1497"/>
      <point x="162" y="1262"/>
      <point x="162" y="1026" type="curve" smooth="yes"/>
      <point x="162" y="788"/>
      <point x="314" y="549"/>
    </contour>
    <contour>
      <point x="2108" y="133" type="curve" smooth="yes"/>
      <point x="1995" y="133"/>
      <point x="1940" y="238"/>
      <point x="1940" y="422" type="curve" smooth="yes"/>
      <point x="1940" y="610"/>
      <point x="1999" y="721"/>
      <point x="2108" y="721" type="curve" smooth="yes"/>
      <point x="2217" y="721"/>
      <point x="2276" y="610"/>
      <point x="2276" y="422" type="curve" smooth="yes"/>
      <point x="2276" y="238"/>
      <point x="2221" y="133"/>
    </contour>
    <contour>
      <point x="2108" y="-47" type="curve" smooth="yes"/>
      <point x="2405" y="-47"/>
      <point x="2557" y="193"/>
      <point x="2557" y="430" type="curve" smooth="yes"/>
      <point x="2557" y="666"/>
      <point x="2409" y="901"/>
      <point x="2108" y="901" type="curve" smooth="yes"/>
      <point x="1807" y="901"/>
      <point x="1659" y="666"/>
      <point x="1659" y="430" type="curve" smooth="yes"/>
      <point x="1659" y="193"/>
      <point x="1811" y="-47"/>
    </contour>
  </outline>
</glyph>
<glyph name="parenleft" format="1">
  <advance width="1114"/>
  <unicode hex="0028"/>
  <outline>
    <contour>
      <point x="861" y="-143" type="curve" smooth="yes"/>
      <point x="900" y="-146"/>
      <point x="938" y="-111"/>
      <point x="938" y="-73" type="curve" smooth="yes"/>
      <point x="938" y="27" type="line" smooth="yes"/>
      <point x="938" y="96"/>
      <point x="925" y="117"/>
      <point x="863" y="147" type="curve" smooth="yes"/>
      <point x="730" y="213"/>
      <point x="664" y="456"/>
      <point x="664" y="698" type="curve" smooth="yes"/>
      <point x="664" y="941"/>
      <point x="731" y="1185"/>
      <point x="863" y="1251" type="curve" smooth="yes"/>
      <point x="925" y="1282"/>
      <point x="938" y="1303"/>
      <point x="938" y="1372" type="curve" smooth="yes"/>
      <point x="938" y="1470" type="line" smooth="yes"/>
      <point x="938" y="1508"/>
      <point x="900" y="1543"/>
      <point x="861" y="1540" type="curve" smooth="yes"/>
      <point x="404" y="1499"/>
      <point x="174" y="1098"/>
      <point x="174" y="698" type="curve" smooth="yes"/>
      <point x="174" y="297"/>
      <point x="404" y="-103"/>
    </contour>
  </outline>
</glyph>
<glyph name="parenright" format="1">
  <advance width="1121"/>
  <unicode hex="0029"/>
  <outline>
    <contour>
      <point x="256" y="-143" type="curve" smooth="yes"/>
      <point x="713" y="-103"/>
      <point x="943" y="297"/>
      <point x="943" y="698" type="curve" smooth="yes"/>
      <point x="943" y="1098"/>
      <point x="713" y="1499"/>
      <point x="256" y="1540" type="curve" smooth="yes"/>
      <point x="217" y="1543"/>
      <point x="179" y="1508"/>
      <point x="179" y="1470" type="curve" smooth="yes"/>
      <point x="179" y="1372" type="line" smooth="yes"/>
      <point x="179" y="1303"/>
      <point x="192" y="1282"/>
      <point x="254" y="1251" type="curve" smooth="yes"/>
      <point x="386" y="1185"/>
      <point x="453" y="941"/>
      <point x="453" y="698" type="curve" smooth="yes"/>
      <point x="453" y="456"/>
      <point x="387" y="213"/>
      <point x="254" y="147" type="curve" smooth="yes"/>
      <point x="192" y="117"/>
      <point x="179" y="96"/>
      <point x="179" y="27" type="curve" smooth="yes"/>
      <point x="179" y="-73" type="line" smooth="yes"/>
      <point x="179" y="-111"/>
      <point x="217" y="-146"/>
    </contour>
  </outline>
</glyph>
<glyph name="plus" format="1">
  <advance width="1360"/>
  <unicode hex="002B"/>
  <outline>
    <contour>
      <point x="593" y="20" type="curve" smooth="yes"/>
      <point x="765" y="20" type="line" smooth="yes"/>
      <point x="808" y="20"/>
      <point x="842" y="54"/>
      <point x="842" y="97" type="curve" smooth="yes"/>
      <point x="842" y="360" type="line" smooth="yes"/>
      <point x="842" y="380"/>
      <point x="859" y="397"/>
      <point x="879" y="397" type="curve" smooth="yes"/>
      <point x="1119" y="397" type="line" smooth="yes"/>
      <point x="1162" y="397"/>
      <point x="1196" y="431"/>
      <point x="1196" y="474" type="curve" smooth="yes"/>
      <point x="1196" y="625" type="line" smooth="yes"/>
      <point x="1196" y="668"/>
      <point x="1162" y="702"/>
      <point x="1119" y="702" type="curve" smooth="yes"/>
      <point x="879" y="702" type="line" smooth="yes"/>
      <point x="859" y="702"/>
      <point x="842" y="719"/>
      <point x="842" y="739" type="curve" smooth="yes"/>
      <point x="842" y="1002" type="line" smooth="yes"/>
      <point x="842" y="1045"/>
      <point x="808" y="1079"/>
      <point x="765" y="1079" type="curve" smooth="yes"/>
      <point x="593" y="1079" type="line" smooth="yes"/>
      <point x="550" y="1079"/>
      <point x="516" y="1045"/>
      <point x="516" y="1002" type="curve" smooth="yes"/>
      <point x="516" y="739" type="line" smooth="yes"/>
      <point x="516" y="719"/>
      <point x="499" y="702"/>
      <point x="479" y="702" type="curve" smooth="yes"/>
      <point x="235" y="702" type="line" smooth="yes"/>
      <point x="192" y="702"/>
      <point x="158" y="668"/>
      <point x="158" y="625" type="curve" smooth="yes"/>
      <point x="158" y="474" type="line" smooth="yes"/>
      <point x="158" y="431"/>
      <point x="192" y="397"/>
      <point x="235" y="397" type="curve" smooth="yes"/>
      <point x="479" y="397" type="line" smooth="yes"/>
      <point x="499" y="397"/>
      <point x="516" y="380"/>
      <point x="516" y="360" type="curve" smooth="yes"/>
      <point x="516" y="97" type="line" smooth="yes"/>
      <point x="516" y="54"/>
      <point x="550" y="20"/>
    </contour>
  </outline>
</glyph>
<glyph name="comma" format="1">
  <advance width="714"/>
  <unicode hex="002C"/>
  <outline>
    <contour>
      <point x="240" y="-322" type="curve" smooth="yes"/>
      <point x="378" y="-299"/>
      <point x="545" y="-212"/>
      <point x="545" y="25" type="curve" smooth="yes"/>
      <point x="545" y="273" type="line" smooth="yes"/>
      <point x="545" y="316"/>
      <point x="511" y="350"/>
      <point x="468" y="350" type="curve" smooth="yes"/>
      <point x="241" y="350" type="line" smooth="yes"/>
      <point x="198" y="350"/>
      <point x="164" y="316"/>
      <point x="164" y="273" type="curve" smooth="yes"/>
      <point x="164" y="70" type="line" smooth="yes"/>
      <point x="164" y="32"/>
      <point x="196" y="0"/>
      <point x="234" y="0" type="curve" smooth="yes"/>
      <point x="275" y="0" type="line" smooth="yes"/>
      <point x="290" y="0"/>
      <point x="306" y="-22"/>
      <point x="302" y="-37" type="curve"/>
      <point x="295" y="-58"/>
      <point x="278" y="-79"/>
      <point x="235" y="-101" type="curve" smooth="yes"/>
      <point x="187" y="-125"/>
      <point x="164" y="-162"/>
      <point x="164" y="-216" type="curve" smooth="yes"/>
      <point x="164" y="-257" type="line" smooth="yes"/>
      <point x="164" y="-293"/>
      <point x="205" y="-328"/>
    </contour>
  </outline>
</glyph>
<glyph name="period" format="1">
  <advance width="711"/>
  <unicode hex="002E"/>
  <outline>
    <contour>
      <point x="240" y="0" type="curve" smooth="yes"/>
      <point x="467" y="0" type="line" smooth="yes"/>
      <point x="510" y="0"/>
      <point x="544" y="34"/>
      <point x="544" y="77" type="curve" smooth="yes"/>
      <point x="544" y="273" type="line" smooth="yes"/>
      <point x="544" y="316"/>
      <point x="510" y="350"/>
      <point x="467" y="350" type="curve" smooth="yes"/>
      <point x="240" y="350" type="line" smooth="yes"/>
      <point x="197" y="350"/>
      <point x="163" y="316"/>
      <point x="163" y="273" type="curve" smooth="yes"/>
      <point x="163" y="77" type="line" smooth="yes"/>
      <point x="163" y="34"/>
      <point x="197" y="0"/>
    </contour>
  </outline>
</glyph>
<glyph name="slash" format="1">
  <advance width="1535"/>
  <unicode hex="002F"/>
  <outline>
    <contour>
      <point x="155" y="-205" type="curve" smooth="yes"/>
      <point x="687" y="-207" type="line" smooth="yes"/>
      <point x="709" y="-207"/>
      <point x="730" y="-193"/>
      <point x="737" y="-172" type="curve" smooth="yes"/>
      <point x="1424" y="1612" type="line" smooth="yes"/>
      <point x="1430" y="1629"/>
      <point x="1418" y="1647"/>
      <point x="1400" y="1647" type="curve" smooth="yes"/>
      <point x="868" y="1647" type="line" smooth="yes"/>
      <point x="846" y="1647"/>
      <point x="826" y="1633"/>
      <point x="818" y="1612" type="curve" smooth="yes"/>
      <point x="131" y="-170" type="line" smooth="yes"/>
      <point x="125" y="-187"/>
      <point x="137" y="-205"/>
    </contour>
  </outline>
</glyph>
<glyph name="B" format="1">
  <advance width="2493"/>
  <unicode hex="0042"/>
  <outline>
    <contour>
      <point x="278" y="0" type="curve" smooth="yes"/>
      <point x="1395" y="0" type="line" smooth="yes"/>
      <point x="1894" y="0"/>
      <point x="2318" y="96"/>
      <point x="2318" y="424" type="curve" smooth="yes"/>
      <point x="2318" y="590"/>
      <point x="2208" y="694"/>
      <point x="2054" y="757" type="curve" smooth="yes"/>
      <point x="2039" y="763"/>
      <point x="2038" y="780"/>
      <point x="2051" y="788" type="curve" smooth="yes"/>
      <point x="2153" y="848"/>
      <point x="2220" y="929"/>
      <point x="2220" y="1040" type="curve" smooth="yes"/>
      <point x="2220" y="1339"/>
      <point x="1868" y="1436"/>
      <point x="1440" y="1436" type="curve" smooth="yes"/>
      <point x="278" y="1436" type="line" smooth="yes"/>
      <point x="235" y="1436"/>
      <point x="201" y="1402"/>
      <point x="201" y="1359" type="curve" smooth="yes"/>
      <point x="201" y="77" type="line" smooth="yes"/>
      <point x="201" y="34"/>
      <point x="235" y="0"/>
    </contour>
    <contour>
      <point x="1206" y="365" type="curve" smooth="yes"/>
      <point x="985" y="365" type="line" smooth="yes"/>
      <point x="965" y="365"/>
      <point x="948" y="382"/>
      <point x="948" y="402" type="curve" smooth="yes"/>
      <point x="948" y="606" type="line" smooth="yes"/>
      <point x="948" y="626"/>
      <point x="965" y="643"/>
      <point x="985" y="643" type="curve" smooth="yes"/>
      <point x="1257" y="643" type="line" smooth="yes"/>
      <point x="1468" y="643"/>
      <point x="1554" y="631"/>
      <point x="1554" y="510" type="curve" smooth="yes"/>
      <point x="1554" y="375"/>
      <point x="1393" y="365"/>
    </contour>
    <contour>
      <point x="1274" y="866" type="curve" smooth="yes"/>
      <point x="985" y="866" type="line" smooth="yes"/>
      <point x="965" y="866"/>
      <point x="948" y="883"/>
      <point x="948" y="903" type="curve" smooth="yes"/>
      <point x="948" y="1087" type="line" smooth="yes"/>
      <point x="948" y="1107"/>
      <point x="965" y="1124"/>
      <point x="985" y="1124" type="curve" smooth="yes"/>
      <point x="1194" y="1124" type="line" smooth="yes"/>
      <point x="1360" y="1124"/>
      <point x="1505" y="1124"/>
      <point x="1505" y="989" type="curve" smooth="yes"/>
      <point x="1505" y="889"/>
      <point x="1436" y="870"/>
    </contour>
  </outline>
</glyph>
<glyph name="C" format="1">
  <advance width="2594"/>
  <unicode hex="0043"/>
  <outline>
    <contour>
      <point x="1386" y="-41" type="curve" smooth="yes"/>
      <point x="1833" y="-41"/>
      <point x="2414" y="59"/>
      <point x="2414" y="442" type="curve" smooth="yes"/>
      <point x="2414" y="456"/>
      <point x="2412" y="471"/>
      <point x="2410" y="486" type="curve" smooth="yes"/>
      <point x="2406" y="510"/>
      <point x="2385" y="529"/>
      <point x="2361" y="531" type="curve" smooth="yes"/>
      <point x="1871" y="572" type="line" smooth="yes"/>
      <point x="1814" y="577"/>
      <point x="1781" y="559"/>
      <point x="1756" y="507" type="curve" smooth="yes"/>
      <point x="1712" y="420"/>
      <point x="1615" y="365"/>
      <point x="1386" y="365" type="curve" smooth="yes"/>
      <point x="1138" y="371"/>
      <point x="985" y="451"/>
      <point x="985" y="719" type="curve" smooth="yes"/>
      <point x="985" y="987"/>
      <point x="1138" y="1067"/>
      <point x="1386" y="1073" type="curve" smooth="yes"/>
      <point x="1594" y="1073"/>
      <point x="1695" y="1031"/>
      <point x="1748" y="949" type="curve" smooth="yes"/>
      <point x="1781" y="898"/>
      <point x="1814" y="881"/>
      <point x="1874" y="886" type="curve" smooth="yes"/>
      <point x="2386" y="921" type="line"/>
      <point x="2391" y="922"/>
      <point x="2397" y="927"/>
      <point x="2398" y="933" type="curve"/>
      <point x="2398" y="937"/>
      <point x="2398" y="941"/>
      <point x="2398" y="946" type="curve"/>
      <point x="2373" y="1358"/>
      <point x="1849" y="1475"/>
      <point x="1386" y="1475" type="curve" smooth="yes"/>
      <point x="786" y="1475"/>
      <point x="168" y="1331"/>
      <point x="168" y="719" type="curve" smooth="yes"/>
      <point x="168" y="106"/>
      <point x="786" y="-41"/>
    </contour>
  </outline>
</glyph>
<glyph name="D" format="1">
  <advance width="2536"/>
  <unicode hex="0044"/>
  <outline>
    <contour>
      <point x="985" y="379" type="curve" smooth="yes"/>
      <point x="965" y="379"/>
      <point x="948" y="396"/>
      <point x="948" y="416" type="curve" smooth="yes"/>
      <point x="948" y="620"/>
      <point x="948" y="824"/>
      <point x="948" y="1028" type="curve" smooth="yes"/>
      <point x="948" y="1048"/>
      <point x="965" y="1065"/>
      <point x="985" y="1065" type="curve" smooth="yes"/>
      <point x="1048" y="1066"/>
      <point x="1164" y="1067"/>
      <point x="1227" y="1067" type="curve" smooth="yes"/>
      <point x="1423" y="1067"/>
      <point x="1622" y="1030"/>
      <point x="1622" y="729" type="curve" smooth="yes"/>
      <point x="1622" y="411"/>
      <point x="1460" y="379"/>
      <point x="1194" y="379" type="curve" smooth="yes"/>
      <point x="1130" y="379"/>
      <point x="1060" y="378"/>
    </contour>
    <contour>
      <point x="278" y="0" type="curve" smooth="yes"/>
      <point x="1210" y="0"/>
      <point x="1242" y="0"/>
      <point x="1274" y="0" type="curve" smooth="yes"/>
      <point x="1872" y="0"/>
      <point x="2359" y="18"/>
      <point x="2359" y="733" type="curve" smooth="yes"/>
      <point x="2359" y="1262"/>
      <point x="1915" y="1436"/>
      <point x="1395" y="1436" type="curve" smooth="yes"/>
      <point x="278" y="1436" type="line" smooth="yes"/>
      <point x="235" y="1436"/>
      <point x="201" y="1402"/>
      <point x="201" y="1359" type="curve" smooth="yes"/>
      <point x="201" y="77" type="line" smooth="yes"/>
      <point x="201" y="34"/>
      <point x="235" y="0"/>
    </contour>
  </outline>
</glyph>
<glyph name="E" format="1">
  <advance width="2464"/>
  <unicode hex="0045"/>
  <outline>
    <contour>
      <point x="278" y="0" type="curve" smooth="yes"/>
      <point x="2202" y="0" type="line" smooth="yes"/>
      <point x="2245" y="0"/>
      <point x="2279" y="34"/>
      <point x="2279" y="77" type="curve" smooth="yes"/>
      <point x="2279" y="300" type="line" smooth="yes"/>
      <point x="2279" y="343"/>
      <point x="2245" y="377"/>
      <point x="2202" y="377" type="curve" smooth="yes"/>
      <point x="1024" y="377" type="line" smooth="yes"/>
      <point x="1004" y="377"/>
      <point x="991" y="384"/>
      <point x="991" y="404" type="curve" smooth="yes"/>
      <point x="991" y="551" type="line" smooth="yes"/>
      <point x="991" y="571"/>
      <point x="1004" y="578"/>
      <point x="1024" y="578" type="curve" smooth="yes"/>
      <point x="1735" y="578" type="line" smooth="yes"/>
      <point x="1778" y="578"/>
      <point x="1812" y="612"/>
      <point x="1812" y="655" type="curve" smooth="yes"/>
      <point x="1812" y="804" type="line" smooth="yes"/>
      <point x="1812" y="847"/>
      <point x="1778" y="881"/>
      <point x="1735" y="881" type="curve" smooth="yes"/>
      <point x="1024" y="881" type="line" smooth="yes"/>
      <point x="1004" y="881"/>
      <point x="991" y="888"/>
      <point x="991" y="908" type="curve" smooth="yes"/>
      <point x="991" y="1028" type="line" smooth="yes"/>
      <point x="991" y="1048"/>
      <point x="1004" y="1055"/>
      <point x="1024" y="1055" type="curve" smooth="yes"/>
      <point x="2125" y="1055" type="line" smooth="yes"/>
      <point x="2168" y="1055"/>
      <point x="2202" y="1089"/>
      <point x="2202" y="1132" type="curve" smooth="yes"/>
      <point x="2202" y="1361" type="line" smooth="yes"/>
      <point x="2202" y="1404"/>
      <point x="2168" y="1438"/>
      <point x="2125" y="1438" type="curve" smooth="yes"/>
      <point x="278" y="1438" type="line" smooth="yes"/>
      <point x="235" y="1438"/>
      <point x="201" y="1404"/>
      <point x="201" y="1361" type="curve" smooth="yes"/>
      <point x="201" y="77" type="line" smooth="yes"/>
      <point x="201" y="34"/>
      <point x="235" y="0"/>
    </contour>
  </outline>
</glyph>
<glyph name="F" format="1">
  <advance width="2308"/>
  <unicode hex="0046"/>
  <outline>
    <contour>
      <point x="278" y="0" type="curve" smooth="yes"/>
      <point x="914" y="0" type="line" smooth="yes"/>
      <point x="957" y="0"/>
      <point x="991" y="34"/>
      <point x="991" y="77" type="curve" smooth="yes"/>
      <point x="991" y="475" type="line" smooth="yes"/>
      <point x="991" y="495"/>
      <point x="1008" y="512"/>
      <point x="1028" y="512" type="curve" smooth="yes"/>
      <point x="1735" y="512" type="line" smooth="yes"/>
      <point x="1778" y="512"/>
      <point x="1812" y="546"/>
      <point x="1812" y="589" type="curve" smooth="yes"/>
      <point x="1812" y="738" type="line" smooth="yes"/>
      <point x="1812" y="781"/>
      <point x="1778" y="815"/>
      <point x="1735" y="815" type="curve" smooth="yes"/>
      <point x="1028" y="815" type="line" smooth="yes"/>
      <point x="1008" y="815"/>
      <point x="991" y="832"/>
      <point x="991" y="852" type="curve" smooth="yes"/>
      <point x="991" y="1018" type="line" smooth="yes"/>
      <point x="991" y="1038"/>
      <point x="1008" y="1055"/>
      <point x="1028" y="1055" type="curve" smooth="yes"/>
      <point x="2077" y="1055" type="line" smooth="yes"/>
      <point x="2120" y="1055"/>
      <point x="2154" y="1089"/>
      <point x="2154" y="1132" type="curve" smooth="yes"/>
      <point x="2154" y="1361" type="line" smooth="yes"/>
      <point x="2154" y="1404"/>
      <point x="2120" y="1438"/>
      <point x="2077" y="1438" type="curve" smooth="yes"/>
      <point x="278" y="1438" type="line" smooth="yes"/>
      <point x="235" y="1438"/>
      <point x="201" y="1404"/>
      <point x="201" y="1361" type="curve" smooth="yes"/>
      <point x="201" y="77" type="line" smooth="yes"/>
      <point x="201" y="34"/>
      <point x="235" y="0"/>
    </contour>
  </outline>
</glyph>
<glyph name="G" format="1">
  <advance width="2592"/>
  <unicode hex="0047"/>
  <outline>
    <contour>
      <point x="1286" y="-41" type="curve" smooth="yes"/>
      <point x="1460" y="-41"/>
      <point x="1903" y="-20"/>
      <point x="2076" y="276" type="curve" smooth="yes"/>
      <point x="2080" y="283"/>
      <point x="2086" y="286"/>
      <point x="2092" y="286" type="curve" smooth="yes"/>
      <point x="2098" y="286"/>
      <point x="2105" y="282"/>
      <point x="2108" y="274" type="curve"/>
      <point x="2197" y="70" type="line" smooth="yes"/>
      <point x="2223" y="11"/>
      <point x="2271" y="0"/>
      <point x="2317" y="0" type="curve" smooth="yes"/>
      <point x="2360" y="0"/>
      <point x="2394" y="34"/>
      <point x="2394" y="77" type="curve" smooth="yes"/>
      <point x="2394" y="703" type="line" smooth="yes"/>
      <point x="2394" y="746"/>
      <point x="2360" y="780"/>
      <point x="2317" y="780" type="curve" smooth="yes"/>
      <point x="1525" y="780" type="line" smooth="yes"/>
      <point x="1482" y="780"/>
      <point x="1448" y="746"/>
      <point x="1448" y="703" type="curve" smooth="yes"/>
      <point x="1448" y="624" type="line" smooth="yes"/>
      <point x="1448" y="581"/>
      <point x="1482" y="547"/>
      <point x="1525" y="547" type="curve" smooth="yes"/>
      <point x="1718" y="547" type="line" smooth="yes"/>
      <point x="1731" y="547"/>
      <point x="1742" y="534"/>
      <point x="1742" y="521" type="curve" smooth="yes"/>
      <point x="1742" y="518"/>
      <point x="1709" y="359"/>
      <point x="1370" y="359" type="curve" smooth="yes"/>
      <point x="1128" y="359"/>
      <point x="985" y="465"/>
      <point x="985" y="719" type="curve" smooth="yes"/>
      <point x="985" y="987"/>
      <point x="1138" y="1067"/>
      <point x="1386" y="1073" type="curve" smooth="yes"/>
      <point x="1589" y="1073"/>
      <point x="1690" y="1037"/>
      <point x="1744" y="967" type="curve" smooth="yes"/>
      <point x="1778" y="921"/>
      <point x="1805" y="905"/>
      <point x="1856" y="905" type="curve" smooth="yes"/>
      <point x="1863" y="905"/>
      <point x="1871" y="905"/>
      <point x="2385" y="941" type="curve"/>
      <point x="2391" y="942"/>
      <point x="2398" y="947"/>
      <point x="2398" y="953" type="curve" smooth="yes"/>
      <point x="2384" y="1364"/>
      <point x="1849" y="1475"/>
      <point x="1386" y="1475" type="curve" smooth="yes"/>
      <point x="786" y="1475"/>
      <point x="168" y="1331"/>
      <point x="168" y="719" type="curve" smooth="yes"/>
      <point x="168" y="160"/>
      <point x="710" y="-41"/>
    </contour>
  </outline>
</glyph>
<glyph name="H" format="1">
  <advance width="2534"/>
  <unicode hex="0048"/>
  <outline>
    <contour>
      <point x="278" y="0" type="curve" smooth="yes"/>
      <point x="851" y="0" type="line" smooth="yes"/>
      <point x="894" y="0"/>
      <point x="928" y="34"/>
      <point x="928" y="77" type="curve" smooth="yes"/>
      <point x="928" y="518" type="line" smooth="yes"/>
      <point x="928" y="538"/>
      <point x="945" y="555"/>
      <point x="965" y="555" type="curve" smooth="yes"/>
      <point x="1556" y="555" type="line" smooth="yes"/>
      <point x="1576" y="555"/>
      <point x="1593" y="538"/>
      <point x="1593" y="518" type="curve" smooth="yes"/>
      <point x="1593" y="77" type="line" smooth="yes"/>
      <point x="1593" y="34"/>
      <point x="1627" y="0"/>
      <point x="1670" y="0" type="curve" smooth="yes"/>
      <point x="2256" y="0" type="line" smooth="yes"/>
      <point x="2299" y="0"/>
      <point x="2333" y="34"/>
      <point x="2333" y="77" type="curve" smooth="yes"/>
      <point x="2333" y="1361" type="line" smooth="yes"/>
      <point x="2333" y="1404"/>
      <point x="2299" y="1438"/>
      <point x="2256" y="1438" type="curve" smooth="yes"/>
      <point x="1672" y="1438" type="line" smooth="yes"/>
      <point x="1629" y="1438"/>
      <point x="1595" y="1404"/>
      <point x="1595" y="1361" type="curve" smooth="yes"/>
      <point x="1595" y="957" type="line" smooth="yes"/>
      <point x="1595" y="937"/>
      <point x="1578" y="920"/>
      <point x="1558" y="920" type="curve" smooth="yes"/>
      <point x="959" y="920" type="line" smooth="yes"/>
      <point x="939" y="920"/>
      <point x="922" y="937"/>
      <point x="922" y="957" type="curve" smooth="yes"/>
      <point x="922" y="1361" type="line" smooth="yes"/>
      <point x="922" y="1404"/>
      <point x="888" y="1438"/>
      <point x="845" y="1438" type="curve" smooth="yes"/>
      <point x="278" y="1438" type="line" smooth="yes"/>
      <point x="235" y="1438"/>
      <point x="201" y="1404"/>
      <point x="201" y="1361" type="curve" smooth="yes"/>
      <point x="201" y="77" type="line" smooth="yes"/>
      <point x="201" y="34"/>
      <point x="235" y="0"/>
    </contour>
  </outline>
</glyph>
<glyph name="I" format="1">
  <advance width="1164"/>
  <unicode hex="0049"/>
  <outline>
    <contour>
      <point x="278" y="0" type="curve" smooth="yes"/>
      <point x="886" y="0" type="line" smooth="yes"/>
      <point x="929" y="0"/>
      <point x="963" y="34"/>
      <point x="963" y="77" type="curve" smooth="yes"/>
      <point x="963" y="1361" type="line" smooth="yes"/>
      <point x="963" y="1404"/>
      <point x="929" y="1438"/>
      <point x="886" y="1438" type="curve" smooth="yes"/>
      <point x="278" y="1438" type="line" smooth="yes"/>
      <point x="235" y="1438"/>
      <point x="201" y="1404"/>
      <point x="201" y="1361" type="curve" smooth="yes"/>
      <point x="201" y="77" type="line" smooth="yes"/>
      <point x="201" y="34"/>
      <point x="235" y="0"/>
    </contour>
  </outline>
</glyph>
<glyph name="K" format="1">
  <advance width="2393"/>
  <unicode hex="004B"/>
  <outline>
    <contour>
      <point x="278" y="0" type="curve" smooth="yes"/>
      <point x="886" y="0" type="line" smooth="yes"/>
      <point x="929" y="0"/>
      <point x="963" y="34"/>
      <point x="963" y="77" type="curve" smooth="yes"/>
      <point x="963" y="655" type="line"/>
      <point x="1373" y="63" type="line" smooth="yes"/>
      <point x="1400" y="25"/>
      <point x="1447" y="0"/>
      <point x="1494" y="0" type="curve" smooth="yes"/>
      <point x="2186" y="0" type="line" smooth="yes"/>
      <point x="2218" y="0"/>
      <point x="2236" y="36"/>
      <point x="2217" y="62" type="curve" smooth="yes"/>
      <point x="1676" y="792" type="line" smooth="yes"/>
      <point x="1667" y="804"/>
      <point x="1656" y="815"/>
      <point x="1643" y="823" type="curve"/>
      <point x="1660" y="833"/>
      <point x="1675" y="845"/>
      <point x="1688" y="860" type="curve" smooth="yes"/>
      <point x="2127" y="1379" type="line" smooth="yes"/>
      <point x="2147" y="1403"/>
      <point x="2131" y="1438"/>
      <point x="2100" y="1438" type="curve" smooth="yes"/>
      <point x="1525" y="1438" type="line" smooth="yes"/>
      <point x="1478" y="1438"/>
      <point x="1427" y="1412"/>
      <point x="1400" y="1378" type="curve" smooth="yes"/>
      <point x="963" y="830" type="line"/>
      <point x="963" y="1361" type="line" smooth="yes"/>
      <point x="963" y="1404"/>
      <point x="929" y="1438"/>
      <point x="886" y="1438" type="curve" smooth="yes"/>
      <point x="278" y="1438" type="line" smooth="yes"/>
      <point x="235" y="1438"/>
      <point x="201" y="1404"/>
      <point x="201" y="1361" type="curve" smooth="yes"/>
      <point x="201" y="77" type="line" smooth="yes"/>
      <point x="201" y="34"/>
      <point x="235" y="0"/>
    </contour>
  </outline>
</glyph>
<glyph name="L" format="1">
  <advance width="2261"/>
  <unicode hex="004C"/>
  <outline>
    <contour>
      <point x="278" y="0" type="curve" smooth="yes"/>
      <point x="2016" y="0" type="line" smooth="yes"/>
      <point x="2059" y="0"/>
      <point x="2093" y="34"/>
      <point x="2093" y="77" type="curve" smooth="yes"/>
      <point x="2093" y="306" type="line" smooth="yes"/>
      <point x="2093" y="349"/>
      <point x="2059" y="383"/>
      <point x="2016" y="383" type="curve" smooth="yes"/>
      <point x="1028" y="383" type="line" smooth="yes"/>
      <point x="1008" y="383"/>
      <point x="991" y="400"/>
      <point x="991" y="420" type="curve" smooth="yes"/>
      <point x="991" y="1361" type="line" smooth="yes"/>
      <point x="991" y="1404"/>
      <point x="957" y="1438"/>
      <point x="914" y="1438" type="curve" smooth="yes"/>
      <point x="278" y="1438" type="line" smooth="yes"/>
      <point x="235" y="1438"/>
      <point x="201" y="1404"/>
      <point x="201" y="1361" type="curve" smooth="yes"/>
      <point x="201" y="77" type="line" smooth="yes"/>
      <point x="201" y="34"/>
      <point x="235" y="0"/>
    </contour>
  </outline>
</glyph>
<glyph name="M" format="1">
  <advance width="3122"/>
  <unicode hex="004D"/>
  <outline>
    <contour>
      <point x="268" y="0" type="curve" smooth="yes"/>
      <point x="777" y="0" type="line" smooth="yes"/>
      <point x="820" y="0"/>
      <point x="854" y="34"/>
      <point x="854" y="77" type="curve"/>
      <point x="894" y="758" type="line"/>
      <point x="894" y="768"/>
      <point x="907" y="772"/>
      <point x="912" y="763" type="curve" smooth="yes"/>
      <point x="1320" y="67" type="line" smooth="yes"/>
      <point x="1343" y="26"/>
      <point x="1388" y="0"/>
      <point x="1435" y="0" type="curve" smooth="yes"/>
      <point x="1687" y="0" type="line" smooth="yes"/>
      <point x="1734" y="0"/>
      <point x="1779" y="26"/>
      <point x="1802" y="67" type="curve" smooth="yes"/>
      <point x="2210" y="763" type="line" smooth="yes"/>
      <point x="2215" y="772"/>
      <point x="2228" y="768"/>
      <point x="2228" y="758" type="curve"/>
      <point x="2268" y="77" type="line"/>
      <point x="2268" y="34"/>
      <point x="2302" y="0"/>
      <point x="2345" y="0" type="curve" smooth="yes"/>
      <point x="2854" y="0" type="line" smooth="yes"/>
      <point x="2897" y="0"/>
      <point x="2931" y="34"/>
      <point x="2931" y="77" type="curve"/>
      <point x="2851" y="1361" type="line"/>
      <point x="2851" y="1404"/>
      <point x="2817" y="1438"/>
      <point x="2774" y="1438" type="curve" smooth="yes"/>
      <point x="2054" y="1438" type="line" smooth="yes"/>
      <point x="2007" y="1438"/>
      <point x="1962" y="1411"/>
      <point x="1940" y="1371" type="curve" smooth="yes"/>
      <point x="1579" y="722" type="line" smooth="yes"/>
      <point x="1571" y="708"/>
      <point x="1551" y="708"/>
      <point x="1543" y="722" type="curve" smooth="yes"/>
      <point x="1182" y="1371" type="line" smooth="yes"/>
      <point x="1160" y="1411"/>
      <point x="1115" y="1438"/>
      <point x="1068" y="1438" type="curve" smooth="yes"/>
      <point x="348" y="1438" type="line" smooth="yes"/>
      <point x="305" y="1438"/>
      <point x="271" y="1404"/>
      <point x="271" y="1361" type="curve"/>
      <point x="191" y="77" type="line"/>
      <point x="191" y="34"/>
      <point x="225" y="0"/>
    </contour>
  </outline>
</glyph>
<glyph name="N" format="1">
  <advance width="2712"/>
  <unicode hex="004E"/>
  <outline>
    <contour>
      <point x="1836" y="-18" type="curve" smooth="yes"/>
      <point x="2434" y="-18" type="line" smooth="yes"/>
      <point x="2477" y="-18"/>
      <point x="2511" y="16"/>
      <point x="2511" y="59" type="curve" smooth="yes"/>
      <point x="2511" y="1359" type="line" smooth="yes"/>
      <point x="2511" y="1402"/>
      <point x="2477" y="1436"/>
      <point x="2434" y="1436" type="curve" smooth="yes"/>
      <point x="1937" y="1436" type="line" smooth="yes"/>
      <point x="1894" y="1436"/>
      <point x="1860" y="1402"/>
      <point x="1860" y="1359" type="curve" smooth="yes"/>
      <point x="1860" y="841" type="line" smooth="yes"/>
      <point x="1860" y="826"/>
      <point x="1843" y="819"/>
      <point x="1832" y="828" type="curve"/>
      <point x="1216" y="1403" type="line" smooth="yes"/>
      <point x="1181" y="1434"/>
      <point x="1128" y="1454"/>
      <point x="1081" y="1454" type="curve" smooth="yes"/>
      <point x="278" y="1454" type="line" smooth="yes"/>
      <point x="235" y="1454"/>
      <point x="201" y="1420"/>
      <point x="201" y="1377" type="curve" smooth="yes"/>
      <point x="201" y="77" type="line" smooth="yes"/>
      <point x="201" y="34"/>
      <point x="235" y="0"/>
      <point x="278" y="0" type="curve" smooth="yes"/>
      <point x="787" y="0" type="line" smooth="yes"/>
      <point x="830" y="0"/>
      <point x="864" y="34"/>
      <point x="864" y="77" type="curve" smooth="yes"/>
      <point x="864" y="798" type="line" smooth="yes"/>
      <point x="864" y="813"/>
      <point x="881" y="821"/>
      <point x="892" y="811" type="curve" smooth="yes"/>
      <point x="1701" y="32" type="line" smooth="yes"/>
      <point x="1736" y="1"/>
      <point x="1789" y="-18"/>
    </contour>
  </outline>
</glyph>
<glyph name="O" format="1">
  <advance width="2820"/>
  <unicode hex="004F"/>
  <outline>
    <contour>
      <point x="1410" y="356" type="curve" smooth="yes"/>
      <point x="1174" y="356"/>
      <point x="1027" y="438"/>
      <point x="1027" y="721" type="curve" smooth="yes"/>
      <point x="1027" y="1004"/>
      <point x="1174" y="1085"/>
      <point x="1410" y="1085" type="curve" smooth="yes"/>
      <point x="1645" y="1085"/>
      <point x="1793" y="1004"/>
      <point x="1793" y="721" type="curve" smooth="yes"/>
      <point x="1793" y="438"/>
      <point x="1645" y="356"/>
    </contour>
    <contour>
      <point x="1410" y="-41" type="curve" smooth="yes"/>
      <point x="1940" y="-41"/>
      <point x="2651" y="72"/>
      <point x="2651" y="721" type="curve" smooth="yes"/>
      <point x="2651" y="1323"/>
      <point x="1940" y="1475"/>
      <point x="1410" y="1475" type="curve" smooth="yes"/>
      <point x="879" y="1475"/>
      <point x="169" y="1323"/>
      <point x="169" y="721" type="curve" smooth="yes"/>
      <point x="169" y="72"/>
      <point x="879" y="-41"/>
    </contour>
  </outline>
</glyph>
<glyph name="P" format="1">
  <advance width="2515"/>
  <unicode hex="0050"/>
  <outline>
    <contour>
      <point x="278" y="0" type="curve" smooth="yes"/>
      <point x="869" y="0" type="line" smooth="yes"/>
      <point x="912" y="0"/>
      <point x="946" y="34"/>
      <point x="946" y="77" type="curve" smooth="yes"/>
      <point x="946" y="416" type="line" smooth="yes"/>
      <point x="946" y="436"/>
      <point x="963" y="453"/>
      <point x="983" y="453" type="curve" smooth="yes"/>
      <point x="1148" y="455"/>
      <point x="1310" y="453"/>
      <point x="1462" y="455" type="curve" smooth="yes"/>
      <point x="1959" y="461"/>
      <point x="2345" y="517"/>
      <point x="2345" y="930" type="curve" smooth="yes"/>
      <point x="2345" y="1370"/>
      <point x="2001" y="1438"/>
      <point x="1454" y="1438" type="curve" smooth="yes"/>
      <point x="1062" y="1438"/>
      <point x="669" y="1436"/>
      <point x="278" y="1436" type="curve" smooth="yes"/>
      <point x="235" y="1436"/>
      <point x="201" y="1401"/>
      <point x="201" y="1359" type="curve" smooth="yes"/>
      <point x="201" y="77" type="line" smooth="yes"/>
      <point x="201" y="34"/>
      <point x="235" y="0"/>
    </contour>
    <contour>
      <point x="1393" y="762" type="curve" smooth="yes"/>
      <point x="983" y="762" type="line" smooth="yes"/>
      <point x="963" y="762"/>
      <point x="946" y="779"/>
      <point x="946" y="799" type="curve" smooth="yes"/>
      <point x="946" y="1020" type="line" smooth="yes"/>
      <point x="946" y="1040"/>
      <point x="963" y="1057"/>
      <point x="983" y="1057" type="curve" smooth="yes"/>
      <point x="1266" y="1057" type="line" smooth="yes"/>
      <point x="1378" y="1057"/>
      <point x="1579" y="1090"/>
      <point x="1579" y="911" type="curve" smooth="yes"/>
      <point x="1579" y="788"/>
      <point x="1481" y="762"/>
    </contour>
  </outline>
</glyph>
<glyph name="Q" format="1">
  <advance width="2720"/>
  <unicode hex="0051"/>
  <outline>
    <contour>
      <point x="1888" y="-513" type="curve" smooth="yes"/>
      <point x="2196" y="-392" type="line" smooth="yes"/>
      <point x="2233" y="-372"/>
      <point x="2247" y="-326"/>
      <point x="2224" y="-288" type="curve" smooth="yes"/>
      <point x="1885" y="327" type="line" smooth="yes"/>
      <point x="1863" y="364"/>
      <point x="1818" y="377"/>
      <point x="1779" y="357" type="curve" smooth="yes"/>
      <point x="1471" y="236" type="line" smooth="yes"/>
      <point x="1434" y="216"/>
      <point x="1420" y="170"/>
      <point x="1443" y="132" type="curve" smooth="yes"/>
      <point x="1782" y="-483" type="line" smooth="yes"/>
      <point x="1804" y="-520"/>
      <point x="1849" y="-533"/>
    </contour>
    <component base="O" xOffset="-47" yOffset="2"/>
  </outline>
</glyph>
<glyph name="R" format="1">
  <advance width="2535"/>
  <unicode hex="0052"/>
  <outline>
    <contour>
      <point x="278" y="0" type="curve" smooth="yes"/>
      <point x="869" y="0" type="line" smooth="yes"/>
      <point x="912" y="0"/>
      <point x="946" y="34"/>
      <point x="946" y="77" type="curve" smooth="yes"/>
      <point x="946" y="457" type="line" smooth="yes"/>
      <point x="946" y="477"/>
      <point x="963" y="496"/>
      <point x="983" y="496" type="curve" smooth="yes"/>
      <point x="1311" y="496" type="line" smooth="yes"/>
      <point x="1424" y="496"/>
      <point x="1457" y="496"/>
      <point x="1499" y="424" type="curve" smooth="yes"/>
      <point x="1548" y="340"/>
      <point x="1562" y="162"/>
      <point x="1580" y="68" type="curve" smooth="yes"/>
      <point x="1590" y="15"/>
      <point x="1615" y="0"/>
      <point x="1678" y="0" type="curve" smooth="yes"/>
      <point x="2295" y="0" type="line" smooth="yes"/>
      <point x="2324" y="0"/>
      <point x="2336" y="21"/>
      <point x="2336" y="47" type="curve" smooth="yes"/>
      <point x="2336" y="69"/>
      <point x="2324" y="124"/>
      <point x="2316" y="184" type="curve" smooth="yes"/>
      <point x="2283" y="439"/>
      <point x="2195" y="611"/>
      <point x="1940" y="654" type="curve"/>
      <point x="1937" y="654"/>
      <point x="1936" y="656"/>
      <point x="1936" y="658" type="curve" smooth="yes"/>
      <point x="1936" y="660"/>
      <point x="1937" y="662"/>
      <point x="1940" y="663" type="curve"/>
      <point x="2159" y="690"/>
      <point x="2345" y="798"/>
      <point x="2345" y="1012" type="curve" smooth="yes"/>
      <point x="2345" y="1434"/>
      <point x="1946" y="1438"/>
      <point x="1440" y="1438" type="curve" smooth="yes"/>
      <point x="1100" y="1438"/>
      <point x="278" y="1436"/>
      <point x="278" y="1436" type="curve"/>
      <point x="235" y="1436"/>
      <point x="201" y="1402"/>
      <point x="201" y="1359" type="curve" smooth="yes"/>
      <point x="201" y="77" type="line" smooth="yes"/>
      <point x="201" y="34"/>
      <point x="235" y="0"/>
    </contour>
    <contour>
      <point x="1434" y="803" type="curve" smooth="yes"/>
      <point x="983" y="803" type="line" smooth="yes"/>
      <point x="963" y="803"/>
      <point x="946" y="820"/>
      <point x="946" y="840" type="curve" smooth="yes"/>
      <point x="946" y="1020" type="line" smooth="yes"/>
      <point x="946" y="1040"/>
      <point x="963" y="1057"/>
      <point x="983" y="1057" type="curve" smooth="yes"/>
      <point x="1335" y="1057" type="line" smooth="yes"/>
      <point x="1427" y="1057"/>
      <point x="1579" y="1053"/>
      <point x="1579" y="926" type="curve" smooth="yes"/>
      <point x="1579" y="856"/>
      <point x="1501" y="803"/>
    </contour>
  </outline>
</glyph>
<glyph name="S" format="1">
  <advance width="2586"/>
  <unicode hex="0053"/>
  <outline>
    <contour>
      <point x="1260" y="-41" type="curve" smooth="yes"/>
      <point x="2120" y="-41"/>
      <point x="2413" y="108"/>
      <point x="2413" y="459" type="curve" smooth="yes"/>
      <point x="2413" y="868"/>
      <point x="1882" y="927"/>
      <point x="1468" y="949" type="curve" smooth="yes"/>
      <point x="1203" y="963"/>
      <point x="985" y="963"/>
      <point x="985" y="1030" type="curve" smooth="yes"/>
      <point x="985" y="1096"/>
      <point x="1168" y="1092"/>
      <point x="1254" y="1092" type="curve" smooth="yes"/>
      <point x="1382" y="1092"/>
      <point x="1740" y="1079"/>
      <point x="2038" y="980" type="curve" smooth="yes"/>
      <point x="2081" y="966"/>
      <point x="2125" y="984"/>
      <point x="2146" y="1024" type="curve" smooth="yes"/>
      <point x="2252" y="1233" type="line" smooth="yes"/>
      <point x="2270" y="1268"/>
      <point x="2252" y="1315"/>
      <point x="2215" y="1329" type="curve" smooth="yes"/>
      <point x="1949" y="1431"/>
      <point x="1616" y="1475"/>
      <point x="1213" y="1475" type="curve" smooth="yes"/>
      <point x="711" y="1475"/>
      <point x="193" y="1430"/>
      <point x="193" y="979" type="curve" smooth="yes"/>
      <point x="193" y="496"/>
      <point x="869" y="514"/>
      <point x="1446" y="477" type="curve" smooth="yes"/>
      <point x="1501" y="473"/>
      <point x="1585" y="471"/>
      <point x="1585" y="410" type="curve" smooth="yes"/>
      <point x="1585" y="358"/>
      <point x="1493" y="348"/>
      <point x="1403" y="348" type="curve" smooth="yes"/>
      <point x="1035" y="348"/>
      <point x="736" y="377"/>
      <point x="413" y="475" type="curve" smooth="yes"/>
      <point x="370" y="488"/>
      <point x="326" y="468"/>
      <point x="307" y="428" type="curve" smooth="yes"/>
      <point x="200" y="201" type="line" smooth="yes"/>
      <point x="183" y="165"/>
      <point x="202" y="119"/>
      <point x="240" y="106" type="curve" smooth="yes"/>
      <point x="568" y="-11"/>
      <point x="920" y="-41"/>
    </contour>
  </outline>
</glyph>
<glyph name="T" format="1">
  <advance width="2270"/>
  <unicode hex="0054"/>
  <outline>
    <contour>
      <point x="850" y="0" type="curve" smooth="yes"/>
      <point x="1423" y="0" type="line" smooth="yes"/>
      <point x="1466" y="0"/>
      <point x="1500" y="34"/>
      <point x="1500" y="77" type="curve" smooth="yes"/>
      <point x="1500" y="1036" type="line" smooth="yes"/>
      <point x="1500" y="1056"/>
      <point x="1517" y="1073"/>
      <point x="1537" y="1073" type="curve" smooth="yes"/>
      <point x="2047" y="1073" type="line" smooth="yes"/>
      <point x="2090" y="1073"/>
      <point x="2124" y="1107"/>
      <point x="2124" y="1150" type="curve" smooth="yes"/>
      <point x="2124" y="1361" type="line" smooth="yes"/>
      <point x="2124" y="1404"/>
      <point x="2090" y="1438"/>
      <point x="2047" y="1438" type="curve" smooth="yes"/>
      <point x="223" y="1438" type="line" smooth="yes"/>
      <point x="180" y="1438"/>
      <point x="146" y="1404"/>
      <point x="146" y="1361" type="curve" smooth="yes"/>
      <point x="146" y="1150" type="line" smooth="yes"/>
      <point x="146" y="1107"/>
      <point x="180" y="1073"/>
      <point x="223" y="1073" type="curve" smooth="yes"/>
      <point x="736" y="1073" type="line" smooth="yes"/>
      <point x="756" y="1073"/>
      <point x="773" y="1056"/>
      <point x="773" y="1036" type="curve" smooth="yes"/>
      <point x="773" y="77" type="line" smooth="yes"/>
      <point x="773" y="34"/>
      <point x="807" y="0"/>
    </contour>
  </outline>
</glyph>
<glyph name="U" format="1">
  <advance width="2778"/>
  <unicode hex="0055"/>
  <outline>
    <contour>
      <point x="1410" y="-41" type="curve" smooth="yes"/>
      <point x="1916" y="-41"/>
      <point x="2589" y="72"/>
      <point x="2589" y="721" type="curve" smooth="yes"/>
      <point x="2589" y="1361" type="line" smooth="yes"/>
      <point x="2589" y="1404"/>
      <point x="2555" y="1438"/>
      <point x="2512" y="1438" type="curve" smooth="yes"/>
      <point x="1849" y="1438" type="line" smooth="yes"/>
      <point x="1806" y="1438"/>
      <point x="1772" y="1404"/>
      <point x="1772" y="1361" type="curve" smooth="yes"/>
      <point x="1772" y="721" type="line" smooth="yes"/>
      <point x="1772" y="438"/>
      <point x="1633" y="356"/>
      <point x="1410" y="356" type="curve" smooth="yes"/>
      <point x="1187" y="356"/>
      <point x="1047" y="438"/>
      <point x="1047" y="721" type="curve" smooth="yes"/>
      <point x="1047" y="1361" type="line" smooth="yes"/>
      <point x="1047" y="1404"/>
      <point x="1013" y="1438"/>
      <point x="970" y="1438" type="curve" smooth="yes"/>
      <point x="266" y="1438" type="line" smooth="yes"/>
      <point x="223" y="1438"/>
      <point x="189" y="1404"/>
      <point x="189" y="1361" type="curve" smooth="yes"/>
      <point x="189" y="721" type="line" smooth="yes"/>
      <point x="189" y="72"/>
      <point x="888" y="-41"/>
    </contour>
  </outline>
</glyph>
<glyph name="V" format="1">
  <advance width="2524.17550688"/>
  <unicode hex="0056"/>
  <outline>
    <contour>
      <point x="966.861355352" y="0" type="curve" smooth="yes"/>
      <point x="1572.86135535" y="0" type="line" smooth="yes"/>
      <point x="1619.86135535" y="0"/>
      <point x="1664.86135535" y="27"/>
      <point x="1685.86135535" y="67" type="curve" smooth="yes"/>
      <point x="2391.86135535" y="1371" type="line" smooth="yes"/>
      <point x="2407.86135535" y="1401"/>
      <point x="2385.86135535" y="1438"/>
      <point x="2350.86135535" y="1438" type="curve" smooth="yes"/>
      <point x="1825.86135535" y="1438" type="line" smooth="yes"/>
      <point x="1778.86135535" y="1438"/>
      <point x="1733.86135535" y="1411"/>
      <point x="1711.86135535" y="1371" type="curve" smooth="yes"/>
      <point x="1301.86135535" y="613" type="line"/>
      <point x="893.861355352" y="1371" type="line" smooth="yes"/>
      <point x="871.861355352" y="1411"/>
      <point x="827.861355352" y="1438"/>
      <point x="780.861355352" y="1438" type="curve" smooth="yes"/>
      <point x="172.861355352" y="1438" type="line" smooth="yes"/>
      <point x="137.861355352" y="1438"/>
      <point x="115.861355352" y="1401"/>
      <point x="132.861355352" y="1371" type="curve" smooth="yes"/>
      <point x="852.861355352" y="67" type="line" smooth="yes"/>
      <point x="874.861355352" y="27"/>
      <point x="919.861355352" y="0"/>
    </contour>
  </outline>
</glyph>
<glyph name="W" format="1">
  <advance width="3414.08181679"/>
  <unicode hex="0057"/>
  <outline>
    <contour>
      <point x="802.040908396" y="0" type="curve" smooth="yes"/>
      <point x="1350.0409084" y="0"/>
      <point x="1352.0409084" y="0"/>
      <point x="1354.0409084" y="0" type="curve"/>
      <point x="1397.0409084" y="3"/>
      <point x="1436.0409084" y="31"/>
      <point x="1454.0409084" y="70" type="curve" smooth="yes"/>
      <point x="1701.0409084" y="630" type="line"/>
      <point x="1922.0409084" y="71" type="line" smooth="yes"/>
      <point x="1939.0409084" y="29"/>
      <point x="1981.0409084" y="0"/>
      <point x="2027.0409084" y="0" type="curve" smooth="yes"/>
      <point x="2612.0409084" y="0" type="line" smooth="yes"/>
      <point x="2658.0409084" y="0"/>
      <point x="2701.0409084" y="28"/>
      <point x="2719.0409084" y="70" type="curve" smooth="yes"/>
      <point x="3273.0409084" y="1368" type="line" smooth="yes"/>
      <point x="3287.0409084" y="1401"/>
      <point x="3263.0409084" y="1438"/>
      <point x="3226.0409084" y="1438" type="curve" smooth="yes"/>
      <point x="2721.0409084" y="1438" type="line" smooth="yes"/>
      <point x="2675.0409084" y="1438"/>
      <point x="2632.0409084" y="1410"/>
      <point x="2614.0409084" y="1368" type="curve" smooth="yes"/>
      <point x="2345.0409084" y="738" type="line"/>
      <point x="2085.0409084" y="1367" type="line" smooth="yes"/>
      <point x="2069.0409084" y="1407"/>
      <point x="2030.0409084" y="1435"/>
      <point x="1987.0409084" y="1438" type="curve"/>
      <point x="1517.0409084" y="1438" type="line" smooth="yes"/>
      <point x="1471.0409084" y="1438"/>
      <point x="1428.0409084" y="1410"/>
      <point x="1409.0409084" y="1368" type="curve" smooth="yes"/>
      <point x="1136.0409084" y="750" type="line"/>
      <point x="900.040908396" y="1366" type="line" smooth="yes"/>
      <point x="883.040908396" y="1409"/>
      <point x="841.040908396" y="1438"/>
      <point x="795.040908396" y="1438" type="curve" smooth="yes"/>
      <point x="188.040908396" y="1438" type="line" smooth="yes"/>
      <point x="151.040908396" y="1438"/>
      <point x="127.040908396" y="1401"/>
      <point x="141.040908396" y="1368" type="curve" smooth="yes"/>
      <point x="695.040908396" y="70" type="line" smooth="yes"/>
      <point x="713.040908396" y="28"/>
      <point x="756.040908396" y="0"/>
    </contour>
  </outline>
</glyph>
<glyph name="X" format="1">
  <advance width="2582"/>
  <unicode hex="0058"/>
  <outline>
    <contour>
      <point x="198" y="0" type="curve" smooth="yes"/>
      <point x="683" y="0" type="line" smooth="yes"/>
      <point x="730" y="0"/>
      <point x="782" y="20"/>
      <point x="817" y="51" type="curve" smooth="yes"/>
      <point x="1173" y="367" type="line"/>
      <point x="1480" y="55" type="line" smooth="yes"/>
      <point x="1513" y="21"/>
      <point x="1564" y="0"/>
      <point x="1611" y="0" type="curve" smooth="yes"/>
      <point x="2383" y="0" type="line" smooth="yes"/>
      <point x="2403" y="0"/>
      <point x="2416" y="16"/>
      <point x="2416" y="33" type="curve" smooth="yes"/>
      <point x="2416" y="40"/>
      <point x="2413" y="48"/>
      <point x="2407" y="55" type="curve"/>
      <point x="1680" y="818" type="line"/>
      <point x="2321" y="1387" type="line" smooth="yes"/>
      <point x="2328" y="1393"/>
      <point x="2331" y="1401"/>
      <point x="2331" y="1408" type="curve" smooth="yes"/>
      <point x="2331" y="1423"/>
      <point x="2319" y="1438"/>
      <point x="2301" y="1438" type="curve" smooth="yes"/>
      <point x="1812" y="1438" type="line" smooth="yes"/>
      <point x="1765" y="1438"/>
      <point x="1713" y="1418"/>
      <point x="1678" y="1387" type="curve" smooth="yes"/>
      <point x="1385" y="1126" type="line"/>
      <point x="1141" y="1383" type="line" smooth="yes"/>
      <point x="1109" y="1416"/>
      <point x="1058" y="1438"/>
      <point x="1011" y="1438" type="curve" smooth="yes"/>
      <point x="198" y="1438" type="line" smooth="yes"/>
      <point x="178" y="1438"/>
      <point x="166" y="1422"/>
      <point x="166" y="1406" type="curve" smooth="yes"/>
      <point x="166" y="1398"/>
      <point x="169" y="1390"/>
      <point x="175" y="1383" type="curve"/>
      <point x="874" y="671" type="line"/>
      <point x="178" y="51" type="line" smooth="yes"/>
      <point x="171" y="45"/>
      <point x="168" y="37"/>
      <point x="168" y="30" type="curve" smooth="yes"/>
      <point x="168" y="15"/>
      <point x="180" y="0"/>
    </contour>
  </outline>
</glyph>
<glyph name="Y" format="1">
  <advance width="2399"/>
  <unicode hex="0059"/>
  <outline>
    <contour>
      <point x="904" y="0" type="curve" smooth="yes"/>
      <point x="1512" y="0" type="line" smooth="yes"/>
      <point x="1555" y="0"/>
      <point x="1589" y="34"/>
      <point x="1589" y="77" type="curve" smooth="yes"/>
      <point x="1589" y="433" type="line"/>
      <point x="2279" y="1376" type="line" smooth="yes"/>
      <point x="2284" y="1383"/>
      <point x="2287" y="1391"/>
      <point x="2287" y="1399" type="curve" smooth="yes"/>
      <point x="2287" y="1419"/>
      <point x="2270" y="1438"/>
      <point x="2247" y="1438" type="curve" smooth="yes"/>
      <point x="1721" y="1438" type="line" smooth="yes"/>
      <point x="1674" y="1438"/>
      <point x="1627" y="1413"/>
      <point x="1600" y="1375" type="curve" smooth="yes"/>
      <point x="1261" y="890" type="line"/>
      <point x="911" y="1376" type="line" smooth="yes"/>
      <point x="884" y="1414"/>
      <point x="836" y="1438"/>
      <point x="789" y="1438" type="curve" smooth="yes"/>
      <point x="151" y="1438" type="line" smooth="yes"/>
      <point x="128" y="1438"/>
      <point x="112" y="1419"/>
      <point x="112" y="1400" type="curve" smooth="yes"/>
      <point x="112" y="1392"/>
      <point x="115" y="1384"/>
      <point x="120" y="1377" type="curve" smooth="yes"/>
      <point x="827" y="430" type="line"/>
      <point x="827" y="77" type="line" smooth="yes"/>
      <point x="827" y="34"/>
      <point x="861" y="0"/>
    </contour>
  </outline>
</glyph>
<glyph name="Z" format="1">
  <advance width="2231"/>
  <unicode hex="005A"/>
  <outline>
    <contour>
      <point x="267" y="0" type="curve" smooth="yes"/>
      <point x="1966" y="0" type="line" smooth="yes"/>
      <point x="2009" y="0"/>
      <point x="2043" y="34"/>
      <point x="2043" y="77" type="curve" smooth="yes"/>
      <point x="2043" y="306" type="line" smooth="yes"/>
      <point x="2043" y="349"/>
      <point x="2009" y="383"/>
      <point x="1966" y="383" type="curve" smooth="yes"/>
      <point x="1193" y="383" type="line" smooth="yes"/>
      <point x="1180" y="383"/>
      <point x="1174" y="399"/>
      <point x="1184" y="407" type="curve" smooth="yes"/>
      <point x="1942" y="1058" type="line" smooth="yes"/>
      <point x="1977" y="1089"/>
      <point x="2000" y="1138"/>
      <point x="2000" y="1185" type="curve" smooth="yes"/>
      <point x="2000" y="1361" type="line" smooth="yes"/>
      <point x="2000" y="1404"/>
      <point x="1966" y="1438"/>
      <point x="1923" y="1438" type="curve" smooth="yes"/>
      <point x="301" y="1438" type="line" smooth="yes"/>
      <point x="258" y="1438"/>
      <point x="224" y="1404"/>
      <point x="224" y="1361" type="curve" smooth="yes"/>
      <point x="224" y="1134" type="line" smooth="yes"/>
      <point x="224" y="1091"/>
      <point x="258" y="1057"/>
      <point x="301" y="1057" type="curve" smooth="yes"/>
      <point x="964" y="1057" type="line" smooth="yes"/>
      <point x="977" y="1057"/>
      <point x="983" y="1041"/>
      <point x="973" y="1033" type="curve" smooth="yes"/>
      <point x="248" y="395" type="line" smooth="yes"/>
      <point x="212" y="364"/>
      <point x="190" y="314"/>
      <point x="190" y="267" type="curve" smooth="yes"/>
      <point x="190" y="77" type="line" smooth="yes"/>
      <point x="190" y="34"/>
      <point x="224" y="0"/>
    </contour>
  </outline>
</glyph>
<glyph name="bracketleft" format="1">
  <advance width="1658"/>
  <unicode hex="005B"/>
  <outline>
    <contour>
      <point x="280" y="-205" type="curve" smooth="yes"/>
      <point x="1404" y="-205" type="line" smooth="yes"/>
      <point x="1447" y="-205"/>
      <point x="1481" y="-171"/>
      <point x="1481" y="-128" type="curve" smooth="yes"/>
      <point x="1481" y="101" type="line" smooth="yes"/>
      <point x="1481" y="144"/>
      <point x="1447" y="178"/>
      <point x="1404" y="178" type="curve" smooth="yes"/>
      <point x="1030" y="178" type="line" smooth="yes"/>
      <point x="1010" y="178"/>
      <point x="993" y="195"/>
      <point x="993" y="215" type="curve" smooth="yes"/>
      <point x="993" y="1227" type="line" smooth="yes"/>
      <point x="993" y="1247"/>
      <point x="1010" y="1264"/>
      <point x="1030" y="1264" type="curve" smooth="yes"/>
      <point x="1404" y="1264" type="line" smooth="yes"/>
      <point x="1447" y="1264"/>
      <point x="1481" y="1298"/>
      <point x="1481" y="1341" type="curve" smooth="yes"/>
      <point x="1481" y="1570" type="line" smooth="yes"/>
      <point x="1481" y="1613"/>
      <point x="1447" y="1647"/>
      <point x="1404" y="1647" type="curve" smooth="yes"/>
      <point x="280" y="1647" type="line" smooth="yes"/>
      <point x="237" y="1647"/>
      <point x="203" y="1613"/>
      <point x="203" y="1570" type="curve" smooth="yes"/>
      <point x="203" y="-128" type="line" smooth="yes"/>
      <point x="203" y="-171"/>
      <point x="237" y="-205"/>
    </contour>
  </outline>
</glyph>
<glyph name="backslash" format="1">
  <advance width="1532"/>
  <unicode hex="005C"/>
  <outline>
    <contour>
      <point x="840" y="-207" type="curve" smooth="yes"/>
      <point x="1372" y="-205" type="line" smooth="yes"/>
      <point x="1390" y="-205"/>
      <point x="1402" y="-187"/>
      <point x="1396" y="-170" type="curve" smooth="yes"/>
      <point x="709" y="1612" type="line" smooth="yes"/>
      <point x="702" y="1633"/>
      <point x="681" y="1647"/>
      <point x="659" y="1647" type="curve" smooth="yes"/>
      <point x="127" y="1647" type="line" smooth="yes"/>
      <point x="109" y="1647"/>
      <point x="97" y="1629"/>
      <point x="103" y="1612" type="curve" smooth="yes"/>
      <point x="790" y="-172" type="line" smooth="yes"/>
      <point x="798" y="-193"/>
      <point x="818" y="-207"/>
    </contour>
  </outline>
</glyph>
<glyph name="grave" format="1">
  <advance width="725"/>
  <unicode hex="0060"/>
  <outline>
    <contour>
      <point x="549.636001587" y="1217.0" type="curve" smooth="yes"/>
      <point x="582.363998413" y="1217.0" type="line" smooth="yes"/>
      <point x="608.643666959" y="1217.0"/>
      <point x="620.521673988" y="1249.48351435"/>
      <point x="600.440830273" y="1266.43582082" type="curve" smooth="yes"/>
      <point x="441.559169727" y="1400.56417918" type="line" smooth="yes"/>
      <point x="405.894369259" y="1430.67250711"/>
      <point x="353.038289015" y="1450.0"/>
      <point x="306.363998413" y="1450.0" type="curve" smooth="yes"/>
      <point x="98.6360015869" y="1450.0" type="line" smooth="yes"/>
      <point x="78.911420024" y="1450.0"/>
      <point x="72.5623419191" y="1423.87799187"/>
      <point x="90.0864352693" y="1414.82452457" type="curve" smooth="yes"/>
      <point x="404.913564731" y="1252.17547543" type="line" smooth="yes"/>
      <point x="445.421810399" y="1231.24771214"/>
      <point x="504.041163686" y="1217.0"/>
    </contour>
  </outline>
</glyph>
<glyph name="a" format="1">
  <advance width="2100"/>
  <unicode hex="0061"/>
  <outline>
    <contour>
      <point x="777" y="-41" type="curve" smooth="yes"/>
      <point x="1143" y="-41"/>
      <point x="1383" y="59"/>
      <point x="1498" y="210" type="curve" smooth="yes"/>
      <point x="1505" y="219"/>
      <point x="1511" y="222"/>
      <point x="1515" y="222" type="curve" smooth="yes"/>
      <point x="1522" y="222"/>
      <point x="1527" y="216"/>
      <point x="1530" y="207" type="curve" smooth="yes"/>
      <point x="1538" y="183"/>
      <point x="1588" y="99"/>
      <point x="1613" y="56" type="curve" smooth="yes"/>
      <point x="1634" y="21"/>
      <point x="1677" y="0"/>
      <point x="1717" y="0" type="curve" smooth="yes"/>
      <point x="1852" y="0" type="line" smooth="yes"/>
      <point x="1887" y="0"/>
      <point x="1915" y="28"/>
      <point x="1915" y="63" type="curve" smooth="yes"/>
      <point x="1915" y="631" type="line" smooth="yes"/>
      <point x="1915" y="980"/>
      <point x="1477" y="1053"/>
      <point x="1008" y="1053" type="curve" smooth="yes"/>
      <point x="522" y="1053"/>
      <point x="275" y="989"/>
      <point x="215" y="846" type="curve" smooth="yes"/>
      <point x="210" y="833"/>
      <point x="204" y="816"/>
      <point x="204" y="802" type="curve" smooth="yes"/>
      <point x="204" y="785"/>
      <point x="219" y="766"/>
      <point x="236" y="765" type="curve" smooth="yes"/>
      <point x="662" y="728" type="line" smooth="yes"/>
      <point x="671" y="727"/>
      <point x="678" y="726"/>
      <point x="684" y="726" type="curve" smooth="yes"/>
      <point x="705" y="726"/>
      <point x="717" y="730"/>
      <point x="740" y="750" type="curve" smooth="yes"/>
      <point x="815" y="815"/>
      <point x="929" y="840"/>
      <point x="1013" y="840" type="curve" smooth="yes"/>
      <point x="1201" y="840"/>
      <point x="1274" y="772"/>
      <point x="1274" y="653" type="curve" smooth="yes"/>
      <point x="1274" y="647"/>
      <point x="1274" y="646"/>
      <point x="1274" y="639" type="curve" smooth="yes"/>
      <point x="1274" y="594"/>
      <point x="177" y="646"/>
      <point x="177" y="238" type="curve" smooth="yes"/>
      <point x="177" y="62"/>
      <point x="421" y="-41"/>
    </contour>
    <contour>
      <point x="900" y="187" type="curve" smooth="yes"/>
      <point x="820" y="187"/>
      <point x="773" y="220"/>
      <point x="773" y="274" type="curve" smooth="yes"/>
      <point x="773" y="367"/>
      <point x="976" y="408"/>
      <point x="1245" y="447" type="curve"/>
      <point x="1250" y="448"/>
      <point x="1254" y="448"/>
      <point x="1257" y="448" type="curve" smooth="yes"/>
      <point x="1287" y="448"/>
      <point x="1288" y="427"/>
      <point x="1288" y="413" type="curve" smooth="yes"/>
      <point x="1288" y="298"/>
      <point x="1112" y="187"/>
    </contour>
  </outline>
</glyph>
<glyph name="b" format="1">
  <advance width="2177"/>
  <unicode hex="0062"/>
  <outline>
    <contour>
      <point x="1255" y="-41" type="curve" smooth="yes"/>
      <point x="1632" y="-41"/>
      <point x="2009" y="133"/>
      <point x="2009" y="498" type="curve" smooth="yes"/>
      <point x="2009" y="885"/>
      <point x="1640" y="1053"/>
      <point x="1296" y="1053" type="curve" smooth="yes"/>
      <point x="1118" y="1053"/>
      <point x="944" y="1008"/>
      <point x="832" y="926" type="curve" smooth="yes"/>
      <point x="828" y="923"/>
      <point x="824" y="922"/>
      <point x="821" y="922" type="curve" smooth="yes"/>
      <point x="811" y="922"/>
      <point x="803" y="930"/>
      <point x="803" y="941" type="curve" smooth="yes"/>
      <point x="803" y="1346" type="line" smooth="yes"/>
      <point x="803" y="1389"/>
      <point x="769" y="1423"/>
      <point x="726" y="1423" type="curve" smooth="yes"/>
      <point x="278" y="1423" type="line" smooth="yes"/>
      <point x="235" y="1423"/>
      <point x="201" y="1389"/>
      <point x="201" y="1346" type="curve" smooth="yes"/>
      <point x="201" y="67" type="line" smooth="yes"/>
      <point x="201" y="24"/>
      <point x="218" y="0"/>
      <point x="261" y="0" type="curve" smooth="yes"/>
      <point x="378" y="0" type="line" smooth="yes"/>
      <point x="424" y="0"/>
      <point x="441" y="25"/>
      <point x="467" y="63" type="curve" smooth="yes"/>
      <point x="517" y="137"/>
      <point x="543" y="178"/>
      <point x="557" y="201" type="curve" smooth="yes"/>
      <point x="562" y="209"/>
      <point x="569" y="213"/>
      <point x="576" y="213" type="curve" smooth="yes"/>
      <point x="582" y="213"/>
      <point x="588" y="210"/>
      <point x="593" y="204" type="curve" smooth="yes"/>
      <point x="731" y="42"/>
      <point x="994" y="-41"/>
    </contour>
    <contour>
      <point x="1094" y="250" type="curve" smooth="yes"/>
      <point x="899" y="250"/>
      <point x="803" y="381"/>
      <point x="803" y="514" type="curve" smooth="yes"/>
      <point x="803" y="643"/>
      <point x="899" y="776"/>
      <point x="1096" y="776" type="curve" smooth="yes"/>
      <point x="1282" y="776"/>
      <point x="1376" y="645"/>
      <point x="1376" y="514" type="curve" smooth="yes"/>
      <point x="1376" y="383"/>
      <point x="1282" y="250"/>
    </contour>
  </outline>
</glyph>
<glyph name="c" format="1">
  <advance width="1916"/>
  <unicode hex="0063"/>
  <outline>
    <contour>
      <point x="1063" y="-41" type="curve" smooth="yes"/>
      <point x="1283" y="-41"/>
      <point x="1507" y="-6"/>
      <point x="1674" y="46" type="curve" smooth="yes"/>
      <point x="1713" y="57"/>
      <point x="1736" y="102"/>
      <point x="1722" y="140" type="curve" smooth="yes"/>
      <point x="1708" y="181"/>
      <point x="1694" y="222"/>
      <point x="1680" y="263" type="curve" smooth="yes"/>
      <point x="1666" y="305"/>
      <point x="1626" y="325"/>
      <point x="1584" y="313" type="curve" smooth="yes"/>
      <point x="1472" y="281"/>
      <point x="1317" y="252"/>
      <point x="1175" y="252" type="curve" smooth="yes"/>
      <point x="970" y="252"/>
      <point x="794" y="310"/>
      <point x="794" y="510" type="curve" smooth="yes"/>
      <point x="794" y="696"/>
      <point x="954" y="756"/>
      <point x="1143" y="756" type="curve" smooth="yes"/>
      <point x="1288" y="756"/>
      <point x="1450" y="719"/>
      <point x="1568" y="680" type="curve" smooth="yes"/>
      <point x="1610" y="667"/>
      <point x="1652" y="687"/>
      <point x="1668" y="729" type="curve" smooth="yes"/>
      <point x="1682" y="768"/>
      <point x="1697" y="808"/>
      <point x="1712" y="848" type="curve" smooth="yes"/>
      <point x="1727" y="887"/>
      <point x="1704" y="937"/>
      <point x="1665" y="952" type="curve" smooth="yes"/>
      <point x="1505" y="1013"/>
      <point x="1279" y="1053"/>
      <point x="1050" y="1053" type="curve" smooth="yes"/>
      <point x="612" y="1053"/>
      <point x="164" y="909"/>
      <point x="164" y="510" type="curve" smooth="yes"/>
      <point x="164" y="94"/>
      <point x="610" y="-41"/>
    </contour>
  </outline>
</glyph>
<glyph name="d" format="1">
  <advance width="2174"/>
  <unicode hex="0064"/>
  <outline>
    <contour>
      <point x="919" y="-41" type="curve" smooth="yes"/>
      <point x="1179" y="-41"/>
      <point x="1439" y="41"/>
      <point x="1578" y="200" type="curve" smooth="yes"/>
      <point x="1584" y="207"/>
      <point x="1591" y="210"/>
      <point x="1599" y="210" type="curve" smooth="yes"/>
      <point x="1608" y="210"/>
      <point x="1616" y="206"/>
      <point x="1622" y="197" type="curve" smooth="yes"/>
      <point x="1709" y="64" type="line" smooth="yes"/>
      <point x="1734" y="25"/>
      <point x="1781" y="0"/>
      <point x="1828" y="0" type="curve" smooth="yes"/>
      <point x="1897" y="0" type="line" smooth="yes"/>
      <point x="1940" y="0"/>
      <point x="1974" y="34"/>
      <point x="1974" y="77" type="curve" smooth="yes"/>
      <point x="1974" y="1346" type="line" smooth="yes"/>
      <point x="1974" y="1389"/>
      <point x="1940" y="1423"/>
      <point x="1897" y="1423" type="curve" smooth="yes"/>
      <point x="1449" y="1423" type="line" smooth="yes"/>
      <point x="1406" y="1423"/>
      <point x="1372" y="1389"/>
      <point x="1372" y="1346" type="curve" smooth="yes"/>
      <point x="1372" y="941" type="line" smooth="yes"/>
      <point x="1372" y="930"/>
      <point x="1364" y="922"/>
      <point x="1354" y="922" type="curve" smooth="yes"/>
      <point x="1351" y="922"/>
      <point x="1347" y="923"/>
      <point x="1343" y="926" type="curve" smooth="yes"/>
      <point x="1230" y="1008"/>
      <point x="1057" y="1053"/>
      <point x="878" y="1053" type="curve" smooth="yes"/>
      <point x="534" y="1053"/>
      <point x="165" y="885"/>
      <point x="165" y="498" type="curve" smooth="yes"/>
      <point x="165" y="133"/>
      <point x="542" y="-41"/>
    </contour>
    <contour>
      <point x="1081" y="250" type="curve" smooth="yes"/>
      <point x="892" y="250"/>
      <point x="798" y="383"/>
      <point x="798" y="514" type="curve" smooth="yes"/>
      <point x="798" y="645"/>
      <point x="892" y="776"/>
      <point x="1079" y="776" type="curve" smooth="yes"/>
      <point x="1275" y="776"/>
      <point x="1372" y="643"/>
      <point x="1372" y="514" type="curve" smooth="yes"/>
      <point x="1372" y="381"/>
      <point x="1275" y="250"/>
    </contour>
  </outline>
</glyph>
<glyph name="e" format="1">
  <advance width="2028"/>
  <unicode hex="0065"/>
  <outline>
    <contour>
      <point x="1053" y="-41" type="curve" smooth="yes"/>
      <point x="1604" y="-41"/>
      <point x="1831" y="90"/>
      <point x="1831" y="230" type="curve" smooth="yes"/>
      <point x="1831" y="261"/>
      <point x="1819" y="301"/>
      <point x="1772" y="301" type="curve" smooth="yes"/>
      <point x="1741" y="301"/>
      <point x="1408" y="301"/>
      <point x="1374" y="301" type="curve" smooth="yes"/>
      <point x="1318" y="301"/>
      <point x="1327" y="196"/>
      <point x="1090" y="196" type="curve" smooth="yes"/>
      <point x="967" y="196"/>
      <point x="799" y="259"/>
      <point x="799" y="421" type="curve" smooth="yes"/>
      <point x="799" y="437"/>
      <point x="808" y="451"/>
      <point x="824" y="451" type="curve" smooth="yes"/>
      <point x="1814" y="451" type="line" smooth="yes"/>
      <point x="1833" y="451"/>
      <point x="1849" y="466"/>
      <point x="1851" y="484" type="curve" smooth="yes"/>
      <point x="1852" y="496"/>
      <point x="1853" y="506"/>
      <point x="1853" y="520" type="curve" smooth="yes"/>
      <point x="1853" y="936"/>
      <point x="1399" y="1053"/>
      <point x="1044" y="1053" type="curve" smooth="yes"/>
      <point x="649" y="1053"/>
      <point x="166" y="961"/>
      <point x="166" y="504" type="curve" smooth="yes"/>
      <point x="166" y="37"/>
      <point x="655" y="-41"/>
    </contour>
    <contour>
      <point x="812" y="615" type="line" smooth="yes"/>
      <point x="799" y="615"/>
      <point x="800" y="634"/>
      <point x="800" y="648" type="curve"/>
      <point x="806" y="739"/>
      <point x="915" y="814"/>
      <point x="1055" y="814" type="curve" smooth="yes"/>
      <point x="1195" y="814"/>
      <point x="1295" y="745"/>
      <point x="1304" y="643" type="curve"/>
      <point x="1304" y="630"/>
      <point x="1305" y="615"/>
      <point x="1291" y="615" type="curve" smooth="yes"/>
    </contour>
  </outline>
</glyph>
<glyph name="f" format="1">
  <advance width="1716"/>
  <unicode hex="0066"/>
  <outline>
    <contour>
      <point x="477" y="0" type="curve" smooth="yes"/>
      <point x="958" y="0" type="line" smooth="yes"/>
      <point x="1001" y="0"/>
      <point x="1035" y="34"/>
      <point x="1035" y="77" type="curve" smooth="yes"/>
      <point x="1035" y="751" type="line" smooth="yes"/>
      <point x="1035" y="771"/>
      <point x="1038" y="788"/>
      <point x="1058" y="788" type="curve" smooth="yes"/>
      <point x="1452" y="788" type="line" smooth="yes"/>
      <point x="1495" y="788"/>
      <point x="1519" y="797"/>
      <point x="1519" y="840" type="curve" smooth="yes"/>
      <point x="1519" y="951" type="line" smooth="yes"/>
      <point x="1519" y="994"/>
      <point x="1495" y="1006"/>
      <point x="1452" y="1006" type="curve" smooth="yes"/>
      <point x="1041" y="1006" type="line" smooth="yes"/>
      <point x="1038" y="1006"/>
      <point x="1035" y="1009"/>
      <point x="1035" y="1012" type="curve" smooth="yes"/>
      <point x="1035" y="1015"/>
      <point x="1035" y="1048"/>
      <point x="1035" y="1050" type="curve" smooth="yes"/>
      <point x="1035" y="1139"/>
      <point x="1140" y="1165"/>
      <point x="1295" y="1165" type="curve" smooth="yes"/>
      <point x="1361" y="1165"/>
      <point x="1497" y="1145"/>
      <point x="1502" y="1145" type="curve" smooth="yes"/>
      <point x="1536" y="1145"/>
      <point x="1543" y="1159"/>
      <point x="1543" y="1196" type="curve" smooth="yes"/>
      <point x="1543" y="1375" type="line" smooth="yes"/>
      <point x="1543" y="1403"/>
      <point x="1521" y="1431"/>
      <point x="1493" y="1438" type="curve"/>
      <point x="1372" y="1458"/>
      <point x="1233" y="1475"/>
      <point x="1099" y="1475" type="curve" smooth="yes"/>
      <point x="755" y="1475"/>
      <point x="425" y="1364"/>
      <point x="401" y="1044" type="curve" smooth="yes"/>
      <point x="400" y="1022"/>
      <point x="400" y="1006"/>
      <point x="378" y="1006" type="curve" smooth="yes"/>
      <point x="228" y="1006" type="line" smooth="yes"/>
      <point x="185" y="1006"/>
      <point x="161" y="988"/>
      <point x="161" y="945" type="curve" smooth="yes"/>
      <point x="161" y="840" type="line" smooth="yes"/>
      <point x="161" y="797"/>
      <point x="185" y="788"/>
      <point x="228" y="788" type="curve" smooth="yes"/>
      <point x="380" y="788" type="line" smooth="yes"/>
      <point x="400" y="788"/>
      <point x="400" y="771"/>
      <point x="400" y="751" type="curve" smooth="yes"/>
      <point x="400" y="77" type="line" smooth="yes"/>
      <point x="400" y="34"/>
      <point x="434" y="0"/>
    </contour>
  </outline>
</glyph>
<glyph name="g" format="1">
  <advance width="1886"/>
  <unicode hex="0067"/>
  <outline>
    <contour>
      <point x="918" y="-662" type="curve" smooth="yes"/>
      <point x="1590" y="-662"/>
      <point x="1727" y="-494"/>
      <point x="1727" y="-238" type="curve" smooth="yes"/>
      <point x="1727" y="-23"/>
      <point x="1596" y="207"/>
      <point x="1138" y="207" type="curve" smooth="yes"/>
      <point x="853" y="207" type="line" smooth="yes"/>
      <point x="658" y="207"/>
      <point x="550" y="215"/>
      <point x="550" y="279" type="curve" smooth="yes"/>
      <point x="550" y="295"/>
      <point x="557" y="312"/>
      <point x="565" y="327" type="curve" smooth="yes"/>
      <point x="573" y="343"/>
      <point x="598" y="355"/>
      <point x="616" y="351" type="curve" smooth="yes"/>
      <point x="700" y="333"/>
      <point x="812" y="322"/>
      <point x="939" y="322" type="curve" smooth="yes"/>
      <point x="1449" y="322"/>
      <point x="1607" y="518"/>
      <point x="1607" y="731" type="curve" smooth="yes"/>
      <point x="1607" y="861"/>
      <point x="1497" y="968"/>
      <point x="1342" y="1033" type="curve" smooth="yes"/>
      <point x="1324" y="1041"/>
      <point x="1317" y="1062"/>
      <point x="1328" y="1079" type="curve" smooth="yes"/>
      <point x="1508" y="1369" type="line" smooth="yes"/>
      <point x="1526" y="1397"/>
      <point x="1506" y="1434"/>
      <point x="1472" y="1434" type="curve" smooth="yes"/>
      <point x="1235" y="1434" type="line" smooth="yes"/>
      <point x="1191" y="1434"/>
      <point x="1152" y="1402"/>
      <point x="1144" y="1359" type="curve" smooth="yes"/>
      <point x="1100" y="1131" type="line" smooth="yes"/>
      <point x="1096" y="1112"/>
      <point x="1076" y="1097"/>
      <point x="1056" y="1100" type="curve" smooth="yes"/>
      <point x="1008" y="1105"/>
      <point x="958" y="1114"/>
      <point x="898" y="1114" type="curve" smooth="yes"/>
      <point x="374" y="1114"/>
      <point x="183" y="934"/>
      <point x="183" y="731" type="curve" smooth="yes"/>
      <point x="183" y="631"/>
      <point x="247" y="526"/>
      <point x="341" y="449" type="curve" smooth="yes"/>
      <point x="348" y="443"/>
      <point x="351" y="436"/>
      <point x="351" y="429" type="curve" smooth="yes"/>
      <point x="351" y="421"/>
      <point x="347" y="413"/>
      <point x="338" y="408" type="curve" smooth="yes"/>
      <point x="251" y="354"/>
      <point x="187" y="256"/>
      <point x="187" y="152" type="curve" smooth="yes"/>
      <point x="187" y="54"/>
      <point x="270" y="-52"/>
      <point x="391" y="-109" type="curve" smooth="yes"/>
      <point x="398" y="-113"/>
      <point x="402" y="-119"/>
      <point x="402" y="-126" type="curve" smooth="yes"/>
      <point x="402" y="-131"/>
      <point x="399" y="-137"/>
      <point x="393" y="-141" type="curve" smooth="yes"/>
      <point x="262" y="-221"/>
      <point x="204" y="-332"/>
      <point x="204" y="-406" type="curve" smooth="yes"/>
      <point x="204" y="-557"/>
      <point x="431" y="-662"/>
    </contour>
    <contour>
      <point x="898" y="-381" type="curve" smooth="yes"/>
      <point x="707" y="-381"/>
      <point x="609" y="-346"/>
      <point x="609" y="-301" type="curve" smooth="yes"/>
      <point x="609" y="-275"/>
      <point x="710" y="-193"/>
      <point x="726" y="-193" type="curve" smooth="yes"/>
      <point x="1172" y="-193" type="line" smooth="yes"/>
      <point x="1271" y="-193"/>
      <point x="1328" y="-240"/>
      <point x="1328" y="-283" type="curve" smooth="yes"/>
      <point x="1328" y="-332"/>
      <point x="1318" y="-381"/>
    </contour>
    <contour>
      <point x="898" y="582" type="curve" smooth="yes"/>
      <point x="748" y="582"/>
      <point x="671" y="649"/>
      <point x="671" y="735" type="curve" smooth="yes"/>
      <point x="671" y="813"/>
      <point x="744" y="881"/>
      <point x="898" y="881" type="curve" smooth="yes"/>
      <point x="1045" y="881"/>
      <point x="1127" y="807"/>
      <point x="1127" y="723" type="curve" smooth="yes"/>
      <point x="1127" y="645"/>
      <point x="1052" y="582"/>
    </contour>
  </outline>
</glyph>
<glyph name="h" format="1">
  <advance width="2187"/>
  <unicode hex="0068"/>
  <outline>
    <contour>
      <point x="278" y="0" type="curve" smooth="yes"/>
      <point x="730" y="0" type="line" smooth="yes"/>
      <point x="773" y="0"/>
      <point x="807" y="34"/>
      <point x="807" y="77" type="curve" smooth="yes"/>
      <point x="807" y="496" type="line" smooth="yes"/>
      <point x="807" y="629"/>
      <point x="903" y="760"/>
      <point x="1100" y="760" type="curve" smooth="yes"/>
      <point x="1286" y="760"/>
      <point x="1382" y="627"/>
      <point x="1382" y="496" type="curve" smooth="yes"/>
      <point x="1382" y="77" type="line" smooth="yes"/>
      <point x="1382" y="34"/>
      <point x="1416" y="0"/>
      <point x="1459" y="0" type="curve" smooth="yes"/>
      <point x="1928" y="0" type="line" smooth="yes"/>
      <point x="1971" y="0"/>
      <point x="2005" y="34"/>
      <point x="2005" y="77" type="curve" smooth="yes"/>
      <point x="2005" y="512" type="line" smooth="yes"/>
      <point x="2005" y="864"/>
      <point x="1667" y="1053"/>
      <point x="1313" y="1053" type="curve" smooth="yes"/>
      <point x="1141" y="1053"/>
      <point x="970" y="1008"/>
      <point x="837" y="919" type="curve" smooth="yes"/>
      <point x="824" y="910"/>
      <point x="807" y="918"/>
      <point x="807" y="935" type="curve" smooth="yes"/>
      <point x="807" y="1359" type="line" smooth="yes"/>
      <point x="807" y="1402"/>
      <point x="773" y="1436"/>
      <point x="730" y="1436" type="curve" smooth="yes"/>
      <point x="278" y="1436" type="line" smooth="yes"/>
      <point x="235" y="1436"/>
      <point x="201" y="1402"/>
      <point x="201" y="1359" type="curve" smooth="yes"/>
      <point x="201" y="77" type="line" smooth="yes"/>
      <point x="201" y="34"/>
      <point x="235" y="0"/>
    </contour>
  </outline>
</glyph>
<glyph name="i" format="1">
  <advance width="1063"/>
  <unicode hex="0069"/>
  <outline>
    <contour>
      <point x="305" y="0" type="curve" smooth="yes"/>
      <point x="757" y="0" type="line" smooth="yes"/>
      <point x="800" y="0"/>
      <point x="834" y="34"/>
      <point x="834" y="77" type="curve" smooth="yes"/>
      <point x="834" y="929" type="line" smooth="yes"/>
      <point x="834" y="972"/>
      <point x="800" y="1006"/>
      <point x="757" y="1006" type="curve" smooth="yes"/>
      <point x="305" y="1006" type="line" smooth="yes"/>
      <point x="262" y="1006"/>
      <point x="228" y="972"/>
      <point x="228" y="929" type="curve" smooth="yes"/>
      <point x="228" y="77" type="line" smooth="yes"/>
      <point x="228" y="34"/>
      <point x="262" y="0"/>
    </contour>
    <contour>
      <point x="531" y="1151" type="curve" smooth="yes"/>
      <point x="758" y="1151"/>
      <point x="875" y="1245"/>
      <point x="875" y="1343" type="curve" smooth="yes"/>
      <point x="875" y="1440"/>
      <point x="760" y="1536"/>
      <point x="531" y="1536" type="curve" smooth="yes"/>
      <point x="300" y="1536"/>
      <point x="187" y="1439"/>
      <point x="187" y="1343" type="curve" smooth="yes"/>
      <point x="187" y="1247"/>
      <point x="304" y="1151"/>
    </contour>
  </outline>
</glyph>
<glyph name="j" format="1">
  <advance width="1357"/>
  <unicode hex="006A"/>
  <outline>
    <contour>
      <point x="550" y="-451" type="curve" smooth="yes"/>
      <point x="842" y="-426"/>
      <point x="1126" y="-313"/>
      <point x="1126" y="12" type="curve" smooth="yes"/>
      <point x="1126" y="929" type="line" smooth="yes"/>
      <point x="1126" y="972"/>
      <point x="1092" y="1006"/>
      <point x="1049" y="1006" type="curve" smooth="yes"/>
      <point x="596" y="1006" type="line" smooth="yes"/>
      <point x="553" y="1006"/>
      <point x="519" y="972"/>
      <point x="519" y="929" type="curve" smooth="yes"/>
      <point x="519" y="0" type="line" smooth="yes"/>
      <point x="519" y="-112"/>
      <point x="399" y="-135"/>
      <point x="290" y="-135" type="curve" smooth="yes"/>
      <point x="249" y="-135"/>
      <point x="209" y="-132"/>
      <point x="174" y="-128" type="curve" smooth="yes"/>
      <point x="133" y="-123"/>
      <point x="98" y="-154"/>
      <point x="98" y="-195" type="curve" smooth="yes"/>
      <point x="98" y="-246"/>
      <point x="98" y="-298"/>
      <point x="98" y="-349" type="curve" smooth="yes"/>
      <point x="98" y="-393"/>
      <point x="132" y="-431"/>
      <point x="175" y="-437" type="curve" smooth="yes"/>
      <point x="283" y="-451"/>
      <point x="419" y="-464"/>
    </contour>
    <contour>
      <point x="823" y="1151" type="curve" smooth="yes"/>
      <point x="1046" y="1151"/>
      <point x="1167" y="1245"/>
      <point x="1167" y="1343" type="curve" smooth="yes"/>
      <point x="1167" y="1440"/>
      <point x="1052" y="1536"/>
      <point x="823" y="1536" type="curve" smooth="yes"/>
      <point x="594" y="1536"/>
      <point x="478" y="1439"/>
      <point x="478" y="1343" type="curve" smooth="yes"/>
      <point x="478" y="1247"/>
      <point x="595" y="1151"/>
    </contour>
  </outline>
</glyph>
<glyph name="k" format="1">
  <advance width="2144"/>
  <unicode hex="006B"/>
  <outline>
    <contour>
      <point x="278" y="0" type="curve" smooth="yes"/>
      <point x="730" y="0" type="line" smooth="yes"/>
      <point x="773" y="0"/>
      <point x="807" y="34"/>
      <point x="807" y="77" type="curve" smooth="yes"/>
      <point x="807" y="207" type="line" smooth="yes"/>
      <point x="807" y="230"/>
      <point x="818" y="253"/>
      <point x="835" y="268" type="curve" smooth="yes"/>
      <point x="943" y="361" type="line" smooth="yes"/>
      <point x="950" y="367"/>
      <point x="959" y="370"/>
      <point x="968" y="370" type="curve" smooth="yes"/>
      <point x="978" y="370"/>
      <point x="988" y="366"/>
      <point x="996" y="358" type="curve" smooth="yes"/>
      <point x="1269" y="57" type="line" smooth="yes"/>
      <point x="1301" y="22"/>
      <point x="1322" y="0"/>
      <point x="1369" y="0" type="curve" smooth="yes"/>
      <point x="1936" y="0" type="line" smooth="yes"/>
      <point x="1956" y="0"/>
      <point x="1968" y="16"/>
      <point x="1968" y="32" type="curve" smooth="yes"/>
      <point x="1968" y="40"/>
      <point x="1965" y="48"/>
      <point x="1959" y="54" type="curve" smooth="yes"/>
      <point x="1443" y="574" type="line" smooth="yes"/>
      <point x="1437" y="580"/>
      <point x="1434" y="588"/>
      <point x="1434" y="596" type="curve" smooth="yes"/>
      <point x="1434" y="606"/>
      <point x="1438" y="616"/>
      <point x="1447" y="622" type="curve" smooth="yes"/>
      <point x="1910" y="961" type="line" smooth="yes"/>
      <point x="1917" y="966"/>
      <point x="1921" y="973"/>
      <point x="1921" y="981" type="curve" smooth="yes"/>
      <point x="1921" y="994"/>
      <point x="1911" y="1006"/>
      <point x="1895" y="1006" type="curve" smooth="yes"/>
      <point x="1265" y="1006" type="line" smooth="yes"/>
      <point x="1218" y="1006"/>
      <point x="1164" y="988"/>
      <point x="1127" y="960" type="curve" smooth="yes"/>
      <point x="837" y="743" type="line"/>
      <point x="833" y="741"/>
      <point x="829" y="739"/>
      <point x="826" y="739" type="curve" smooth="yes"/>
      <point x="816" y="739"/>
      <point x="807" y="747"/>
      <point x="807" y="758" type="curve" smooth="yes"/>
      <point x="807" y="1398" type="line" smooth="yes"/>
      <point x="807" y="1441"/>
      <point x="773" y="1475"/>
      <point x="730" y="1475" type="curve" smooth="yes"/>
      <point x="278" y="1475" type="line" smooth="yes"/>
      <point x="235" y="1475"/>
      <point x="201" y="1441"/>
      <point x="201" y="1398" type="curve" smooth="yes"/>
      <point x="201" y="77" type="line" smooth="yes"/>
      <point x="201" y="34"/>
      <point x="235" y="0"/>
    </contour>
  </outline>
</glyph>
<glyph name="l" format="1">
  <advance width="1008"/>
  <unicode hex="006C"/>
  <outline>
    <contour>
      <point x="278" y="0" type="curve" smooth="yes"/>
      <point x="730" y="0" type="line" smooth="yes"/>
      <point x="773" y="0"/>
      <point x="807" y="34"/>
      <point x="807" y="77" type="curve" smooth="yes"/>
      <point x="807" y="1398" type="line" smooth="yes"/>
      <point x="807" y="1441"/>
      <point x="773" y="1475"/>
      <point x="730" y="1475" type="curve" smooth="yes"/>
      <point x="278" y="1475" type="line" smooth="yes"/>
      <point x="235" y="1475"/>
      <point x="201" y="1441"/>
      <point x="201" y="1398" type="curve" smooth="yes"/>
      <point x="201" y="77" type="line" smooth="yes"/>
      <point x="201" y="34"/>
      <point x="235" y="0"/>
    </contour>
  </outline>
</glyph>
<glyph name="m" format="1">
  <advance width="3114"/>
  <unicode hex="006D"/>
  <outline>
    <contour>
      <point x="798" y="77" type="curve" smooth="yes"/>
      <point x="798" y="230"/>
      <point x="798" y="308"/>
      <point x="798" y="387" type="curve" smooth="yes"/>
      <point x="798" y="573"/>
      <point x="823" y="760"/>
      <point x="1029" y="760" type="curve" smooth="yes"/>
      <point x="1173" y="760"/>
      <point x="1250" y="627"/>
      <point x="1250" y="496" type="curve" smooth="yes"/>
      <point x="1250" y="77" type="line" smooth="yes"/>
      <point x="1250" y="34"/>
      <point x="1284" y="0"/>
      <point x="1327" y="0" type="curve" smooth="yes"/>
      <point x="1782" y="0" type="line" smooth="yes"/>
      <point x="1825" y="0"/>
      <point x="1859" y="34"/>
      <point x="1859" y="77" type="curve" smooth="yes"/>
      <point x="1859" y="256" type="line" smooth="yes"/>
      <point x="1859" y="336"/>
      <point x="1859" y="463"/>
      <point x="1859" y="464" type="curve" smooth="yes"/>
      <point x="1859" y="727"/>
      <point x="1979" y="760"/>
      <point x="2082" y="760" type="curve" smooth="yes"/>
      <point x="2241" y="760"/>
      <point x="2309" y="680"/>
      <point x="2309" y="496" type="curve" smooth="yes"/>
      <point x="2309" y="77" type="line" smooth="yes"/>
      <point x="2309" y="34"/>
      <point x="2343" y="0"/>
      <point x="2386" y="0" type="curve" smooth="yes"/>
      <point x="2855" y="0" type="line" smooth="yes"/>
      <point x="2898" y="0"/>
      <point x="2932" y="34"/>
      <point x="2932" y="77" type="curve" smooth="yes"/>
      <point x="2932" y="512" type="line" smooth="yes"/>
      <point x="2932" y="875"/>
      <point x="2598" y="1053"/>
      <point x="2248" y="1053" type="curve" smooth="yes"/>
      <point x="2061" y="1053"/>
      <point x="1875" y="994"/>
      <point x="1751" y="882" type="curve" smooth="yes"/>
      <point x="1742" y="874"/>
      <point x="1733" y="871"/>
      <point x="1724" y="871" type="curve" smooth="yes"/>
      <point x="1715" y="871"/>
      <point x="1706" y="874"/>
      <point x="1697" y="882" type="curve" smooth="yes"/>
      <point x="1569" y="996"/>
      <point x="1378" y="1053"/>
      <point x="1179" y="1053" type="curve" smooth="yes"/>
      <point x="957" y="1053"/>
      <point x="744" y="971"/>
      <point x="628" y="811" type="curve" smooth="yes"/>
      <point x="622" y="803"/>
      <point x="615" y="800"/>
      <point x="607" y="800" type="curve" smooth="yes"/>
      <point x="599" y="800"/>
      <point x="591" y="804"/>
      <point x="586" y="812" type="curve" smooth="yes"/>
      <point x="499" y="942" type="line" smooth="yes"/>
      <point x="473" y="981"/>
      <point x="426" y="1006"/>
      <point x="379" y="1006" type="curve" smooth="yes"/>
      <point x="269" y="1006" type="line" smooth="yes"/>
      <point x="226" y="1006"/>
      <point x="192" y="972"/>
      <point x="192" y="929" type="curve" smooth="yes"/>
      <point x="192" y="77" type="line" smooth="yes"/>
      <point x="192" y="34"/>
      <point x="226" y="0"/>
      <point x="269" y="0" type="curve" smooth="yes"/>
      <point x="721" y="0" type="line" smooth="yes"/>
      <point x="764" y="0"/>
      <point x="798" y="34"/>
    </contour>
  </outline>
</glyph>
<glyph name="n" format="1">
  <advance width="2191"/>
  <unicode hex="006E"/>
  <outline>
    <contour>
      <point x="269" y="0" type="curve" smooth="yes"/>
      <point x="721" y="0" type="line" smooth="yes"/>
      <point x="764" y="0"/>
      <point x="798" y="34"/>
      <point x="798" y="77" type="curve" smooth="yes"/>
      <point x="798" y="496" type="line" smooth="yes"/>
      <point x="798" y="629"/>
      <point x="894" y="760"/>
      <point x="1091" y="760" type="curve" smooth="yes"/>
      <point x="1277" y="760"/>
      <point x="1386" y="627"/>
      <point x="1386" y="496" type="curve" smooth="yes"/>
      <point x="1386" y="77" type="line" smooth="yes"/>
      <point x="1386" y="34"/>
      <point x="1420" y="0"/>
      <point x="1463" y="0" type="curve" smooth="yes"/>
      <point x="1931" y="0" type="line" smooth="yes"/>
      <point x="1974" y="0"/>
      <point x="2008" y="34"/>
      <point x="2008" y="77" type="curve" smooth="yes"/>
      <point x="2008" y="512" type="line" smooth="yes"/>
      <point x="2008" y="879"/>
      <point x="1703" y="1053"/>
      <point x="1250" y="1053" type="curve" smooth="yes"/>
      <point x="1005" y="1053"/>
      <point x="759" y="971"/>
      <point x="629" y="810" type="curve" smooth="yes"/>
      <point x="623" y="803"/>
      <point x="616" y="799"/>
      <point x="608" y="799" type="curve" smooth="yes"/>
      <point x="600" y="799"/>
      <point x="591" y="804"/>
      <point x="586" y="812" type="curve" smooth="yes"/>
      <point x="499" y="942" type="line" smooth="yes"/>
      <point x="473" y="981"/>
      <point x="426" y="1006"/>
      <point x="379" y="1006" type="curve" smooth="yes"/>
      <point x="269" y="1006" type="line" smooth="yes"/>
      <point x="226" y="1006"/>
      <point x="192" y="972"/>
      <point x="192" y="929" type="curve" smooth="yes"/>
      <point x="192" y="77" type="line" smooth="yes"/>
      <point x="192" y="34"/>
      <point x="226" y="0"/>
    </contour>
  </outline>
</glyph>
<glyph name="o" format="1">
  <advance width="2136"/>
  <unicode hex="006F"/>
  <outline>
    <contour>
      <point x="1068" y="233" type="curve" smooth="yes"/>
      <point x="877" y="233"/>
      <point x="771" y="319"/>
      <point x="771" y="508" type="curve" smooth="yes"/>
      <point x="771" y="662"/>
      <point x="871" y="780"/>
      <point x="1068" y="780" type="curve" smooth="yes"/>
      <point x="1265" y="780"/>
      <point x="1365" y="662"/>
      <point x="1365" y="508" type="curve" smooth="yes"/>
      <point x="1365" y="319"/>
      <point x="1258" y="233"/>
    </contour>
    <contour>
      <point x="1068" y="-41" type="curve" smooth="yes"/>
      <point x="1453" y="-41"/>
      <point x="1967" y="0"/>
      <point x="1967" y="508" type="curve" smooth="yes"/>
      <point x="1967" y="1006"/>
      <point x="1418" y="1053"/>
      <point x="1068" y="1053" type="curve" smooth="yes"/>
      <point x="718" y="1053"/>
      <point x="169" y="1006"/>
      <point x="169" y="508" type="curve" smooth="yes"/>
      <point x="169" y="0"/>
      <point x="683" y="-41"/>
    </contour>
  </outline>
</glyph>
<glyph name="p" format="1">
  <advance width="2176"/>
  <unicode hex="0070"/>
  <outline>
    <contour>
      <point x="263" y="-299" type="curve" smooth="yes"/>
      <point x="725" y="-299" type="line" smooth="yes"/>
      <point x="768" y="-299"/>
      <point x="798" y="-269"/>
      <point x="798" y="-226" type="curve" smooth="yes"/>
      <point x="798" y="46" type="line" smooth="yes"/>
      <point x="798" y="58"/>
      <point x="807" y="67"/>
      <point x="817" y="67" type="curve" smooth="yes"/>
      <point x="821" y="67"/>
      <point x="825" y="65"/>
      <point x="829" y="63" type="curve"/>
      <point x="942" y="-7"/>
      <point x="1116" y="-41"/>
      <point x="1294" y="-41" type="curve" smooth="yes"/>
      <point x="1640" y="-41"/>
      <point x="2008" y="123"/>
      <point x="2008" y="512" type="curve" smooth="yes"/>
      <point x="2008" y="879"/>
      <point x="1632" y="1053"/>
      <point x="1251" y="1053" type="curve" smooth="yes"/>
      <point x="1006" y="1053"/>
      <point x="760" y="971"/>
      <point x="630" y="810" type="curve" smooth="yes"/>
      <point x="624" y="803"/>
      <point x="615" y="790"/>
      <point x="608" y="790" type="curve" smooth="yes"/>
      <point x="599" y="790"/>
      <point x="592" y="803"/>
      <point x="586" y="811" type="curve" smooth="yes"/>
      <point x="500" y="934" type="line" smooth="yes"/>
      <point x="473" y="972"/>
      <point x="426" y="997"/>
      <point x="379" y="997" type="curve" smooth="yes"/>
      <point x="269" y="997" type="line" smooth="yes"/>
      <point x="226" y="997"/>
      <point x="192" y="963"/>
      <point x="192" y="920" type="curve" smooth="yes"/>
      <point x="192" y="-226" type="line" smooth="yes"/>
      <point x="192" y="-269"/>
      <point x="220" y="-299"/>
    </contour>
    <contour>
      <point x="1093" y="231" type="curve" smooth="yes"/>
      <point x="894" y="231"/>
      <point x="798" y="365"/>
      <point x="798" y="496" type="curve" smooth="yes"/>
      <point x="798" y="629"/>
      <point x="894" y="760"/>
      <point x="1091" y="760" type="curve" smooth="yes"/>
      <point x="1277" y="760"/>
      <point x="1374" y="627"/>
      <point x="1374" y="496" type="curve" smooth="yes"/>
      <point x="1374" y="362"/>
      <point x="1277" y="231"/>
    </contour>
  </outline>
</glyph>
<glyph name="q" format="1">
  <advance width="2178"/>
  <unicode hex="0071"/>
  <outline>
    <contour>
      <point x="1453" y="-299" type="curve" smooth="yes"/>
      <point x="1905" y="-299" type="line" smooth="yes"/>
      <point x="1948" y="-299"/>
      <point x="1982" y="-265"/>
      <point x="1982" y="-222" type="curve" smooth="yes"/>
      <point x="1982" y="920" type="line" smooth="yes"/>
      <point x="1982" y="963"/>
      <point x="1948" y="997"/>
      <point x="1905" y="997" type="curve" smooth="yes"/>
      <point x="1795" y="997" type="line" smooth="yes"/>
      <point x="1748" y="997"/>
      <point x="1701" y="972"/>
      <point x="1674" y="934" type="curve" smooth="yes"/>
      <point x="1588" y="811" type="line" smooth="yes"/>
      <point x="1582" y="803"/>
      <point x="1574" y="799"/>
      <point x="1566" y="799" type="curve" smooth="yes"/>
      <point x="1558" y="799"/>
      <point x="1550" y="803"/>
      <point x="1544" y="810" type="curve" smooth="yes"/>
      <point x="1414" y="971"/>
      <point x="1168" y="1053"/>
      <point x="923" y="1053" type="curve" smooth="yes"/>
      <point x="542" y="1053"/>
      <point x="165" y="879"/>
      <point x="165" y="512" type="curve" smooth="yes"/>
      <point x="165" y="123"/>
      <point x="534" y="-41"/>
      <point x="880" y="-41" type="curve" smooth="yes"/>
      <point x="1058" y="-41"/>
      <point x="1232" y="-7"/>
      <point x="1345" y="63" type="curve"/>
      <point x="1349" y="65"/>
      <point x="1353" y="67"/>
      <point x="1357" y="67" type="curve" smooth="yes"/>
      <point x="1367" y="67"/>
      <point x="1376" y="58"/>
      <point x="1376" y="46" type="curve" smooth="yes"/>
      <point x="1376" y="-222" type="line" smooth="yes"/>
      <point x="1376" y="-265"/>
      <point x="1410" y="-299"/>
    </contour>
    <contour>
      <point x="1081" y="231" type="curve" smooth="yes"/>
      <point x="896" y="231"/>
      <point x="800" y="362"/>
      <point x="800" y="496" type="curve" smooth="yes"/>
      <point x="800" y="627"/>
      <point x="896" y="760"/>
      <point x="1083" y="760" type="curve" smooth="yes"/>
      <point x="1279" y="760"/>
      <point x="1376" y="629"/>
      <point x="1376" y="496" type="curve" smooth="yes"/>
      <point x="1376" y="365"/>
      <point x="1279" y="231"/>
    </contour>
  </outline>
</glyph>
<glyph name="r" format="1">
  <advance width="1720"/>
  <unicode hex="0072"/>
  <outline>
    <contour>
      <point x="269" y="0" type="curve" smooth="yes"/>
      <point x="721" y="0" type="line" smooth="yes"/>
      <point x="764" y="0"/>
      <point x="798" y="34"/>
      <point x="798" y="77" type="curve"/>
      <point x="798" y="77"/>
      <point x="800" y="481"/>
      <point x="800" y="501" type="curve" smooth="yes"/>
      <point x="800" y="554"/>
      <point x="847" y="721"/>
      <point x="1018" y="721" type="curve" smooth="yes"/>
      <point x="1092" y="721"/>
      <point x="1140" y="682"/>
      <point x="1140" y="613" type="curve" smooth="yes"/>
      <point x="1140" y="589"/>
      <point x="1140" y="546"/>
      <point x="1140" y="541" type="curve" smooth="yes"/>
      <point x="1140" y="517"/>
      <point x="1154" y="509"/>
      <point x="1186" y="509" type="curve" smooth="yes"/>
      <point x="1494" y="509" type="line" smooth="yes"/>
      <point x="1529" y="509"/>
      <point x="1556" y="522"/>
      <point x="1556" y="656" type="curve" smooth="yes"/>
      <point x="1556" y="671"/>
      <point x="1556" y="687"/>
      <point x="1556" y="705" type="curve" smooth="yes"/>
      <point x="1556" y="935"/>
      <point x="1371" y="1053"/>
      <point x="1116" y="1053" type="curve" smooth="yes"/>
      <point x="962" y="1053"/>
      <point x="777" y="983"/>
      <point x="630" y="809" type="curve" smooth="yes"/>
      <point x="624" y="802"/>
      <point x="617" y="799"/>
      <point x="609" y="799" type="curve" smooth="yes"/>
      <point x="601" y="799"/>
      <point x="592" y="803"/>
      <point x="586" y="811" type="curve"/>
      <point x="499" y="942" type="line" smooth="yes"/>
      <point x="473" y="981"/>
      <point x="457" y="1006"/>
      <point x="410" y="1006" type="curve" smooth="yes"/>
      <point x="249" y="1006" type="line" smooth="yes"/>
      <point x="206" y="1006"/>
      <point x="192" y="972"/>
      <point x="192" y="929" type="curve" smooth="yes"/>
      <point x="192" y="77" type="line" smooth="yes"/>
      <point x="192" y="34"/>
      <point x="226" y="0"/>
    </contour>
  </outline>
</glyph>
<glyph name="s" format="1">
  <advance width="1960"/>
  <unicode hex="0073"/>
  <outline>
    <contour>
      <point x="952.0" y="-41.0" type="curve" smooth="yes"/>
      <point x="1071.0" y="-41.0"/>
      <point x="1174.0" y="-37.0"/>
      <point x="1266.0" y="-27.0" type="curve" smooth="yes"/>
      <point x="1630.0" y="10.0"/>
      <point x="1788.0" y="123.0"/>
      <point x="1788.0" y="307.0" type="curve" smooth="yes"/>
      <point x="1788.0" y="640.0"/>
      <point x="1372" y="651"/>
      <point x="1066" y="669" type="curve" smooth="yes"/>
      <point x="830" y="683"/>
      <point x="688" y="680"/>
      <point x="688" y="729" type="curve" smooth="yes"/>
      <point x="688" y="760"/>
      <point x="737" y="786"/>
      <point x="969" y="786" type="curve" smooth="yes"/>
      <point x="1215" y="786"/>
      <point x="1366" y="767"/>
      <point x="1506" y="718" type="curve" smooth="yes"/>
      <point x="1549" y="704"/>
      <point x="1594" y="722"/>
      <point x="1614" y="761" type="curve" smooth="yes"/>
      <point x="1664.0" y="866.0" type="line" smooth="yes"/>
      <point x="1682.0" y="901.0"/>
      <point x="1664.0" y="948.0"/>
      <point x="1628.0" y="963.0" type="curve" smooth="yes"/>
      <point x="1403.0" y="1051.0"/>
      <point x="1177.0" y="1053.0"/>
      <point x="934.0" y="1053.0" type="curve" smooth="yes"/>
      <point x="684.0" y="1053.0"/>
      <point x="182.0" y="1018.0"/>
      <point x="182.0" y="698.0" type="curve" smooth="yes"/>
      <point x="182.0" y="419.0"/>
      <point x="638" y="398"/>
      <point x="937" y="376" type="curve" smooth="yes"/>
      <point x="1197" y="357"/>
      <point x="1248" y="357"/>
      <point x="1248" y="293" type="curve" smooth="yes"/>
      <point x="1248" y="249"/>
      <point x="1186" y="236"/>
      <point x="1058" y="236" type="curve" smooth="yes"/>
      <point x="809" y="236"/>
      <point x="582" y="257"/>
      <point x="360" y="323" type="curve" smooth="yes"/>
      <point x="317" y="336"/>
      <point x="273" y="316"/>
      <point x="253" y="275" type="curve" smooth="yes"/>
      <point x="193.0" y="155.0" type="line" smooth="yes"/>
      <point x="177.0" y="121.0"/>
      <point x="196.0" y="72.0"/>
      <point x="232.0" y="59.0" type="curve" smooth="yes"/>
      <point x="434.0" y="-18.0"/>
      <point x="747.0" y="-41.0"/>
    </contour>
  </outline>
</glyph>
<glyph name="t" format="1">
  <advance width="1778"/>
  <unicode hex="0074"/>
  <outline>
    <contour>
      <point x="1164" y="-41" type="curve" smooth="yes"/>
      <point x="1296" y="-41"/>
      <point x="1423" y="-25"/>
      <point x="1525" y="-3" type="curve" smooth="yes"/>
      <point x="1566" y="6"/>
      <point x="1599" y="48"/>
      <point x="1599" y="90" type="curve" smooth="yes"/>
      <point x="1599" y="253" type="line" smooth="yes"/>
      <point x="1599" y="294"/>
      <point x="1564" y="321"/>
      <point x="1525" y="311" type="curve" smooth="yes"/>
      <point x="1455" y="294"/>
      <point x="1366" y="279"/>
      <point x="1281" y="279" type="curve" smooth="yes"/>
      <point x="1148" y="279"/>
      <point x="1029" y="317"/>
      <point x="1029" y="455" type="curve" smooth="yes"/>
      <point x="1029" y="751" type="line" smooth="yes"/>
      <point x="1029" y="771"/>
      <point x="1046" y="788"/>
      <point x="1066" y="788" type="curve" smooth="yes"/>
      <point x="1436" y="788" type="line" smooth="yes"/>
      <point x="1479" y="788"/>
      <point x="1513" y="822"/>
      <point x="1513" y="865" type="curve" smooth="yes"/>
      <point x="1513" y="929" type="line" smooth="yes"/>
      <point x="1513" y="972"/>
      <point x="1479" y="1006"/>
      <point x="1436" y="1006" type="curve" smooth="yes"/>
      <point x="1066" y="1006" type="line" smooth="yes"/>
      <point x="1046" y="1006"/>
      <point x="1029" y="1023"/>
      <point x="1029" y="1043" type="curve" smooth="yes"/>
      <point x="1029" y="1398" type="line" smooth="yes"/>
      <point x="1029" y="1441"/>
      <point x="995" y="1475"/>
      <point x="952" y="1475" type="curve" smooth="yes"/>
      <point x="471" y="1475" type="line" smooth="yes"/>
      <point x="428" y="1475"/>
      <point x="394" y="1441"/>
      <point x="394" y="1398" type="curve" smooth="yes"/>
      <point x="394" y="1043" type="line" smooth="yes"/>
      <point x="394" y="1023"/>
      <point x="377" y="1006"/>
      <point x="357" y="1006" type="curve" smooth="yes"/>
      <point x="232" y="1006" type="line" smooth="yes"/>
      <point x="189" y="1006"/>
      <point x="155" y="972"/>
      <point x="155" y="929" type="curve" smooth="yes"/>
      <point x="155" y="865" type="line" smooth="yes"/>
      <point x="155" y="822"/>
      <point x="189" y="788"/>
      <point x="232" y="788" type="curve" smooth="yes"/>
      <point x="357" y="788" type="line" smooth="yes"/>
      <point x="377" y="788"/>
      <point x="394" y="771"/>
      <point x="394" y="751" type="curve" smooth="yes"/>
      <point x="394" y="500" type="line" smooth="yes"/>
      <point x="394" y="79"/>
      <point x="798" y="-41"/>
    </contour>
  </outline>
</glyph>
<glyph name="u" format="1">
  <advance width="2192"/>
  <unicode hex="0075"/>
  <outline>
    <contour>
      <point x="939" y="-41" type="curve" smooth="yes"/>
      <point x="1184" y="-41"/>
      <point x="1430" y="41"/>
      <point x="1560" y="201" type="curve" smooth="yes"/>
      <point x="1566" y="208"/>
      <point x="1573" y="212"/>
      <point x="1581" y="212" type="curve" smooth="yes"/>
      <point x="1589" y="212"/>
      <point x="1598" y="207"/>
      <point x="1603" y="199" type="curve" smooth="yes"/>
      <point x="1692" y="64" type="line" smooth="yes"/>
      <point x="1717" y="25"/>
      <point x="1764" y="0"/>
      <point x="1811" y="0" type="curve" smooth="yes"/>
      <point x="1921" y="0" type="line" smooth="yes"/>
      <point x="1964" y="0"/>
      <point x="1998" y="34"/>
      <point x="1998" y="77" type="curve" smooth="yes"/>
      <point x="1998" y="941" type="line" smooth="yes"/>
      <point x="1998" y="984"/>
      <point x="1964" y="1018"/>
      <point x="1921" y="1018" type="curve" smooth="yes"/>
      <point x="1469" y="1018" type="line" smooth="yes"/>
      <point x="1426" y="1018"/>
      <point x="1392" y="984"/>
      <point x="1392" y="941" type="curve" smooth="yes"/>
      <point x="1392" y="516" type="line" smooth="yes"/>
      <point x="1392" y="383"/>
      <point x="1295" y="252"/>
      <point x="1099" y="252" type="curve" smooth="yes"/>
      <point x="912" y="252"/>
      <point x="816" y="385"/>
      <point x="816" y="516" type="curve" smooth="yes"/>
      <point x="816" y="941" type="line" smooth="yes"/>
      <point x="816" y="984"/>
      <point x="782" y="1018"/>
      <point x="739" y="1018" type="curve" smooth="yes"/>
      <point x="258" y="1018" type="line" smooth="yes"/>
      <point x="215" y="1018"/>
      <point x="181" y="984"/>
      <point x="181" y="941" type="curve" smooth="yes"/>
      <point x="181" y="500" type="line" smooth="yes"/>
      <point x="181" y="133"/>
      <point x="558" y="-41"/>
    </contour>
  </outline>
</glyph>
<glyph name="v" format="1">
  <advance width="2075"/>
  <unicode hex="0076"/>
  <outline>
    <contour>
      <point x="737" y="0" type="curve" smooth="yes"/>
      <point x="1318" y="0" type="line" smooth="yes"/>
      <point x="1365" y="0"/>
      <point x="1410" y="27"/>
      <point x="1432" y="67" type="curve" smooth="yes"/>
      <point x="1917" y="939" type="line" smooth="yes"/>
      <point x="1921" y="946"/>
      <point x="1923" y="954"/>
      <point x="1923" y="961" type="curve" smooth="yes"/>
      <point x="1923" y="984"/>
      <point x="1904" y="1006"/>
      <point x="1877" y="1006" type="curve" smooth="yes"/>
      <point x="1437" y="1006" type="line" smooth="yes"/>
      <point x="1391" y="1006"/>
      <point x="1347" y="978"/>
      <point x="1327" y="937" type="curve" smooth="yes"/>
      <point x="1089" y="431" type="line" smooth="yes"/>
      <point x="1086" y="424"/>
      <point x="1079" y="421"/>
      <point x="1073" y="421" type="curve" smooth="yes"/>
      <point x="1067" y="421"/>
      <point x="1061" y="424"/>
      <point x="1057" y="431" type="curve"/>
      <point x="821" y="937" type="line" smooth="yes"/>
      <point x="802" y="978"/>
      <point x="758" y="1006"/>
      <point x="712" y="1006" type="curve" smooth="yes"/>
      <point x="198" y="1006" type="line" smooth="yes"/>
      <point x="171" y="1006"/>
      <point x="152" y="984"/>
      <point x="152" y="960" type="curve" smooth="yes"/>
      <point x="152" y="952"/>
      <point x="153" y="945"/>
      <point x="157" y="938" type="curve" smooth="yes"/>
      <point x="624" y="68" type="line" smooth="yes"/>
      <point x="646" y="27"/>
      <point x="690" y="0"/>
    </contour>
  </outline>
</glyph>
<glyph name="w" format="1">
  <advance width="2778"/>
  <unicode hex="0077"/>
  <outline>
    <contour>
      <point x="585" y="0" type="curve" smooth="yes"/>
      <point x="1166" y="0" type="line" smooth="yes"/>
      <point x="1211" y="0"/>
      <point x="1252" y="31"/>
      <point x="1264" y="74" type="curve" smooth="yes"/>
      <point x="1366" y="427" type="line"/>
      <point x="1367" y="432"/>
      <point x="1372" y="435"/>
      <point x="1376" y="435" type="curve" smooth="yes"/>
      <point x="1380" y="435"/>
      <point x="1384" y="432"/>
      <point x="1386" y="427" type="curve"/>
      <point x="1481" y="74" type="line" smooth="yes"/>
      <point x="1493" y="31"/>
      <point x="1533" y="0"/>
      <point x="1578" y="0" type="curve" smooth="yes"/>
      <point x="2159" y="0" type="line" smooth="yes"/>
      <point x="2205" y="0"/>
      <point x="2248" y="29"/>
      <point x="2265" y="71" type="curve" smooth="yes"/>
      <point x="2617" y="935" type="line" smooth="yes"/>
      <point x="2620" y="942"/>
      <point x="2621" y="948"/>
      <point x="2621" y="955" type="curve" smooth="yes"/>
      <point x="2621" y="982"/>
      <point x="2599" y="1006"/>
      <point x="2569" y="1006" type="curve" smooth="yes"/>
      <point x="2149" y="1006" type="line" smooth="yes"/>
      <point x="2104" y="1006"/>
      <point x="2064" y="975"/>
      <point x="2053" y="932" type="curve" smooth="yes"/>
      <point x="1924" y="433" type="line"/>
      <point x="1923" y="428"/>
      <point x="1918" y="425"/>
      <point x="1914" y="425" type="curve" smooth="yes"/>
      <point x="1910" y="425"/>
      <point x="1905" y="427"/>
      <point x="1904" y="432" type="curve"/>
      <point x="1754" y="933" type="line" smooth="yes"/>
      <point x="1741" y="976"/>
      <point x="1700" y="1006"/>
      <point x="1655" y="1006" type="curve" smooth="yes"/>
      <point x="1183" y="1006" type="line" smooth="yes"/>
      <point x="1138" y="1006"/>
      <point x="1097" y="976"/>
      <point x="1084" y="933" type="curve" smooth="yes"/>
      <point x="932" y="432" type="line" smooth="yes"/>
      <point x="931" y="428"/>
      <point x="926" y="425"/>
      <point x="922" y="425" type="curve" smooth="yes"/>
      <point x="918" y="425"/>
      <point x="914" y="428"/>
      <point x="913" y="433" type="curve" smooth="yes"/>
      <point x="797" y="931" type="line" smooth="yes"/>
      <point x="787" y="975"/>
      <point x="748" y="1006"/>
      <point x="703" y="1006" type="curve" smooth="yes"/>
      <point x="210" y="1006" type="line" smooth="yes"/>
      <point x="179" y="1006"/>
      <point x="157" y="981"/>
      <point x="157" y="953" type="curve" smooth="yes"/>
      <point x="157" y="947"/>
      <point x="158" y="940"/>
      <point x="160" y="934" type="curve" smooth="yes"/>
      <point x="481" y="72" type="line" smooth="yes"/>
      <point x="497" y="29"/>
      <point x="539" y="0"/>
    </contour>
  </outline>
</glyph>
<glyph name="x" format="1">
  <advance width="2362"/>
  <unicode hex="0078"/>
  <outline>
    <contour>
      <point x="225" y="0" type="curve" smooth="yes"/>
      <point x="787" y="0" type="line" smooth="yes"/>
      <point x="834" y="0"/>
      <point x="888" y="18"/>
      <point x="925" y="47" type="curve" smooth="yes"/>
      <point x="1091" y="174" type="line"/>
      <point x="1099" y="181"/>
      <point x="1109" y="184"/>
      <point x="1118" y="184" type="curve" smooth="yes"/>
      <point x="1129" y="184"/>
      <point x="1140" y="180"/>
      <point x="1148" y="173" type="curve" smooth="yes"/>
      <point x="1290" y="50" type="line" smooth="yes"/>
      <point x="1325" y="20"/>
      <point x="1378" y="0"/>
      <point x="1425" y="0" type="curve" smooth="yes"/>
      <point x="2164" y="0" type="line" smooth="yes"/>
      <point x="2181" y="0"/>
      <point x="2192" y="13"/>
      <point x="2192" y="27" type="curve" smooth="yes"/>
      <point x="2192" y="35"/>
      <point x="2189" y="43"/>
      <point x="2182" y="48" type="curve"/>
      <point x="1567" y="550" type="line"/>
      <point x="1560" y="555"/>
      <point x="1556" y="564"/>
      <point x="1556" y="572" type="curve" smooth="yes"/>
      <point x="1556" y="581"/>
      <point x="1560" y="589"/>
      <point x="1568" y="595" type="curve" smooth="yes"/>
      <point x="2062" y="960" type="line" smooth="yes"/>
      <point x="2070" y="966"/>
      <point x="2073" y="973"/>
      <point x="2073" y="981" type="curve" smooth="yes"/>
      <point x="2073" y="993"/>
      <point x="2063" y="1006"/>
      <point x="2047" y="1006" type="curve" smooth="yes"/>
      <point x="1525" y="1006" type="line" smooth="yes"/>
      <point x="1478" y="1006"/>
      <point x="1425" y="987"/>
      <point x="1388" y="958" type="curve" smooth="yes"/>
      <point x="1254" y="848" type="line" smooth="yes"/>
      <point x="1246" y="842"/>
      <point x="1236" y="839"/>
      <point x="1226" y="839" type="curve" smooth="yes"/>
      <point x="1215" y="839"/>
      <point x="1205" y="842"/>
      <point x="1197" y="849" type="curve" smooth="yes"/>
      <point x="1072" y="956" type="line" smooth="yes"/>
      <point x="1037" y="987"/>
      <point x="984" y="1006"/>
      <point x="937" y="1006" type="curve" smooth="yes"/>
      <point x="198" y="1006" type="line" smooth="yes"/>
      <point x="181" y="1006"/>
      <point x="170" y="993"/>
      <point x="170" y="979" type="curve" smooth="yes"/>
      <point x="170" y="971"/>
      <point x="173" y="963"/>
      <point x="180" y="958" type="curve"/>
      <point x="751" y="494" type="line"/>
      <point x="758" y="489"/>
      <point x="762" y="480"/>
      <point x="762" y="472" type="curve" smooth="yes"/>
      <point x="762" y="463"/>
      <point x="758" y="455"/>
      <point x="750" y="449" type="curve" smooth="yes"/>
      <point x="209" y="46" type="line"/>
      <point x="202" y="40"/>
      <point x="199" y="33"/>
      <point x="199" y="26" type="curve" smooth="yes"/>
      <point x="199" y="13"/>
      <point x="209" y="0"/>
    </contour>
  </outline>
</glyph>
<glyph name="y" format="1">
  <advance width="1995"/>
  <unicode hex="0079"/>
  <outline>
    <contour>
      <point x="701" y="-694" type="curve" smooth="yes"/>
      <point x="1017" y="-694"/>
      <point x="1162" y="-541"/>
      <point x="1281" y="-279" type="curve" smooth="yes"/>
      <point x="1830" y="936" type="line" smooth="yes"/>
      <point x="1833" y="943"/>
      <point x="1835" y="950"/>
      <point x="1835" y="957" type="curve" smooth="yes"/>
      <point x="1835" y="983"/>
      <point x="1814" y="1006"/>
      <point x="1785" y="1006" type="curve" smooth="yes"/>
      <point x="1407" y="1006" type="line" smooth="yes"/>
      <point x="1361" y="1006"/>
      <point x="1319" y="977"/>
      <point x="1304" y="934" type="curve" smooth="yes"/>
      <point x="1120" y="422" type="line"/>
      <point x="1117" y="415"/>
      <point x="1111" y="411"/>
      <point x="1105" y="411" type="curve" smooth="yes"/>
      <point x="1099" y="411"/>
      <point x="1093" y="414"/>
      <point x="1091" y="420" type="curve"/>
      <point x="834" y="937" type="line" smooth="yes"/>
      <point x="814" y="979"/>
      <point x="769" y="1006"/>
      <point x="723" y="1006" type="curve" smooth="yes"/>
      <point x="209" y="1006" type="line" smooth="yes"/>
      <point x="183" y="1006"/>
      <point x="165" y="985"/>
      <point x="165" y="962" type="curve" smooth="yes"/>
      <point x="165" y="955"/>
      <point x="167" y="947"/>
      <point x="171" y="940" type="curve" smooth="yes"/>
      <point x="808" y="-135" type="line" smooth="yes"/>
      <point x="830" y="-174"/>
      <point x="870" y="-237"/>
      <point x="870" y="-268" type="curve" smooth="yes"/>
      <point x="870" y="-378"/>
      <point x="784" y="-382"/>
      <point x="727" y="-382" type="curve" smooth="yes"/>
      <point x="721" y="-382"/>
      <point x="715" y="-382"/>
      <point x="709" y="-382" type="curve" smooth="yes"/>
      <point x="661" y="-382"/>
      <point x="617" y="-377"/>
      <point x="617" y="-291" type="curve" smooth="yes"/>
      <point x="617" y="-270"/>
      <point x="617" y="-227"/>
      <point x="617" y="-208" type="curve" smooth="yes"/>
      <point x="617" y="-178"/>
      <point x="606" y="-156"/>
      <point x="574" y="-156" type="curve" smooth="yes"/>
      <point x="265" y="-156" type="line" smooth="yes"/>
      <point x="224" y="-156"/>
      <point x="204" y="-188"/>
      <point x="204" y="-229" type="curve" smooth="yes"/>
      <point x="204" y="-255"/>
      <point x="204" y="-291"/>
      <point x="204" y="-342" type="curve" smooth="yes"/>
      <point x="204" y="-567"/>
      <point x="412" y="-694"/>
    </contour>
  </outline>
</glyph>
<glyph name="z" format="1">
  <advance width="1782"/>
  <unicode hex="007A"/>
  <outline>
    <contour>
      <point x="227" y="0" type="curve" smooth="yes"/>
      <point x="1558" y="0" type="line" smooth="yes"/>
      <point x="1578" y="0"/>
      <point x="1595" y="17"/>
      <point x="1595" y="37" type="curve" smooth="yes"/>
      <point x="1595" y="237" type="line" smooth="yes"/>
      <point x="1595" y="257"/>
      <point x="1578" y="274"/>
      <point x="1558" y="274" type="curve" smooth="yes"/>
      <point x="1000" y="274" type="line"/>
      <point x="1527" y="707" type="line" smooth="yes"/>
      <point x="1545" y="722"/>
      <point x="1556" y="745"/>
      <point x="1556" y="768" type="curve" smooth="yes"/>
      <point x="1556" y="969" type="line" smooth="yes"/>
      <point x="1556" y="989"/>
      <point x="1539" y="1006"/>
      <point x="1519" y="1006" type="curve" smooth="yes"/>
      <point x="231" y="1006" type="line" smooth="yes"/>
      <point x="211" y="1006"/>
      <point x="194" y="989"/>
      <point x="194" y="969" type="curve" smooth="yes"/>
      <point x="194" y="768" type="line" smooth="yes"/>
      <point x="194" y="748"/>
      <point x="211" y="731"/>
      <point x="231" y="731" type="curve" smooth="yes"/>
      <point x="760" y="731" type="line"/>
      <point x="219" y="297" type="line" smooth="yes"/>
      <point x="201" y="283"/>
      <point x="190" y="260"/>
      <point x="190" y="237" type="curve" smooth="yes"/>
      <point x="190" y="37" type="line" smooth="yes"/>
      <point x="190" y="17"/>
      <point x="207" y="0"/>
    </contour>
  </outline>
</glyph>
<glyph name="braceleft" format="1">
  <advance width="1287"/>
  <unicode hex="007B"/>
  <outline>
    <contour>
      <point x="765" y="-123" type="curve" smooth="yes"/>
      <point x="846" y="-123"/>
      <point x="946" y="-123"/>
      <point x="1035" y="-123" type="curve" smooth="yes"/>
      <point x="1077" y="-123"/>
      <point x="1112" y="-88"/>
      <point x="1112" y="-46" type="curve" smooth="yes"/>
      <point x="1112" y="64" type="line" smooth="yes"/>
      <point x="1112" y="116"/>
      <point x="1087" y="147"/>
      <point x="1036" y="158" type="curve" smooth="yes"/>
      <point x="779" y="214"/>
      <point x="997" y="572"/>
      <point x="759" y="695" type="curve" smooth="yes"/>
      <point x="745" y="702"/>
      <point x="745" y="718"/>
      <point x="759" y="725" type="curve" smooth="yes"/>
      <point x="997" y="848"/>
      <point x="779" y="1206"/>
      <point x="1036" y="1262" type="curve" smooth="yes"/>
      <point x="1087" y="1273"/>
      <point x="1112" y="1304"/>
      <point x="1112" y="1356" type="curve" smooth="yes"/>
      <point x="1112" y="1466" type="line" smooth="yes"/>
      <point x="1112" y="1508"/>
      <point x="1077" y="1543"/>
      <point x="1035" y="1543" type="curve" smooth="yes"/>
      <point x="946" y="1543"/>
      <point x="846" y="1543"/>
      <point x="765" y="1543" type="curve" smooth="yes"/>
      <point x="287" y="1543"/>
      <point x="522" y="942"/>
      <point x="230" y="857" type="curve" smooth="yes"/>
      <point x="176" y="841"/>
      <point x="154" y="812"/>
      <point x="154" y="756" type="curve" smooth="yes"/>
      <point x="154" y="664" type="line" smooth="yes"/>
      <point x="154" y="608"/>
      <point x="176" y="579"/>
      <point x="230" y="563" type="curve" smooth="yes"/>
      <point x="522" y="478"/>
      <point x="287" y="-123"/>
    </contour>
  </outline>
</glyph>
<glyph name="braceright" format="1">
  <advance width="1297"/>
  <unicode hex="007D"/>
  <outline>
    <contour>
      <point x="254" y="-123" type="curve" smooth="yes"/>
      <point x="343" y="-123"/>
      <point x="443" y="-123"/>
      <point x="524" y="-123" type="curve" smooth="yes"/>
      <point x="1002" y="-123"/>
      <point x="767" y="478"/>
      <point x="1059" y="563" type="curve" smooth="yes"/>
      <point x="1113" y="579"/>
      <point x="1135" y="608"/>
      <point x="1135" y="664" type="curve" smooth="yes"/>
      <point x="1135" y="756" type="line" smooth="yes"/>
      <point x="1135" y="812"/>
      <point x="1113" y="841"/>
      <point x="1059" y="857" type="curve" smooth="yes"/>
      <point x="767" y="942"/>
      <point x="1002" y="1543"/>
      <point x="524" y="1543" type="curve" smooth="yes"/>
      <point x="443" y="1543"/>
      <point x="343" y="1543"/>
      <point x="254" y="1543" type="curve" smooth="yes"/>
      <point x="212" y="1543"/>
      <point x="177" y="1508"/>
      <point x="177" y="1466" type="curve" smooth="yes"/>
      <point x="177" y="1356" type="line" smooth="yes"/>
      <point x="177" y="1304"/>
      <point x="202" y="1273"/>
      <point x="253" y="1262" type="curve" smooth="yes"/>
      <point x="510" y="1206"/>
      <point x="292" y="848"/>
      <point x="530" y="725" type="curve" smooth="yes"/>
      <point x="544" y="718"/>
      <point x="544" y="702"/>
      <point x="530" y="695" type="curve" smooth="yes"/>
      <point x="292" y="572"/>
      <point x="510" y="214"/>
      <point x="253" y="158" type="curve" smooth="yes"/>
      <point x="202" y="147"/>
      <point x="177" y="116"/>
      <point x="177" y="64" type="curve" smooth="yes"/>
      <point x="177" y="-46" type="line" smooth="yes"/>
      <point x="177" y="-88"/>
      <point x="212" y="-123"/>
    </contour>
  </outline>
</glyph>
<glyph name="cedilla" format="1">
  <advance width="716"/>
  <unicode hex="00B8"/>
  <outline>
    <contour>
      <point x="403" y="-642" type="curve" smooth="yes"/>
      <point x="547" y="-642"/>
      <point x="620" y="-500"/>
      <point x="620" y="-370" type="curve" smooth="yes"/>
      <point x="620" y="-259"/>
      <point x="567" y="-156"/>
      <point x="459" y="-156" type="curve" smooth="yes"/>
      <point x="438.5390625" y="-156.0"/>
      <point x="417.432060242" y="-161.168518066"/>
      <point x="396.229788668" y="-172.423546605" type="curve" smooth="yes"/>
      <point x="374.785374547" y="-183.807114261"/>
      <point x="355.153708987" y="-169.466345073"/>
      <point x="359.476765851" y="-145.575767663" type="curve" smooth="yes"/>
      <point x="379.405345029" y="-35.4441458923" type="line" smooth="yes"/>
      <point x="382.815003806" y="-16.6012947542"/>
      <point x="368.112859989" y="1.0"/>
      <point x="348.964000702" y="1.0" type="curve" smooth="yes"/>
      <point x="307.035999298" y="1.0" type="line" smooth="yes"/>
      <point x="285.943320692" y="1.0"/>
      <point x="267.72977105" y="-14.7808597743"/>
      <point x="264.726305804" y="-35.6586059956" type="curve" smooth="yes"/>
      <point x="234.273694196" y="-247.341394004" type="line" smooth="yes"/>
      <point x="231.504822772" y="-266.588427073"/>
      <point x="246.590324519" y="-284.132258079"/>
      <point x="266.034952477" y="-284.278458289" type="curve" smooth="yes"/>
      <point x="317.444772872" y="-284.664998292" type="line" smooth="yes"/>
      <point x="346.0185819" y="-284.879838962"/>
      <point x="363.870702779" y="-276.811547154"/>
      <point x="383.16567831" y="-254.558720207" type="curve" smooth="yes"/>
      <point x="397.312129974" y="-238.243667603"/>
      <point x="410.561523438" y="-231.0"/>
      <point x="422" y="-231" type="curve" smooth="yes"/>
      <point x="463" y="-231"/>
      <point x="483" y="-301"/>
      <point x="483" y="-377" type="curve" smooth="yes"/>
      <point x="483" y="-464"/>
      <point x="457" y="-557"/>
      <point x="410" y="-557" type="curve" smooth="yes"/>
      <point x="372" y="-557"/>
      <point x="358" y="-514"/>
      <point x="358" y="-461" type="curve" smooth="yes"/>
      <point x="358.0" y="-444.4296875"/>
      <point x="359.751117706" y="-426.808704376"/>
      <point x="362.838830724" y="-409.173356615" type="curve" smooth="yes"/>
      <point x="366.335041408" y="-389.204890992"/>
      <point x="352.710070712" y="-372.865515226"/>
      <point x="332.438393656" y="-372.716458777" type="curve" smooth="yes"/>
      <point x="269.360827279" y="-372.252653142" type="line" smooth="yes"/>
      <point x="250.135201253" y="-372.111288245"/>
      <point x="229.202739835" y="-388.895313573"/>
      <point x="225.162025358" y="-407.692050168" type="curve" smooth="yes"/>
      <point x="220.971478462" y="-427.185782433"/>
      <point x="219.0" y="-445.790039062"/>
      <point x="219" y="-464" type="curve" smooth="yes"/>
      <point x="219" y="-572"/>
      <point x="289" y="-642"/>
    </contour>
  </outline>
</glyph>
<glyph name="OE" format="1">
  <advance width="3757"/>
  <unicode hex="0152"/>
  <outline>
    <contour>
      <point x="1488" y="-1" type="curve" smooth="yes"/>
      <point x="1561" y="-1"/>
      <point x="1496" y="0"/>
      <point x="3495" y="0" type="curve" smooth="yes"/>
      <point x="3538" y="0"/>
      <point x="3572" y="34"/>
      <point x="3572" y="77" type="curve" smooth="yes"/>
      <point x="3572" y="300" type="line" smooth="yes"/>
      <point x="3572" y="343"/>
      <point x="3538" y="377"/>
      <point x="3495" y="377" type="curve" smooth="yes"/>
      <point x="2521" y="377" type="line" smooth="yes"/>
      <point x="2501" y="377"/>
      <point x="2484" y="394"/>
      <point x="2484" y="414" type="curve" smooth="yes"/>
      <point x="2484" y="541" type="line" smooth="yes"/>
      <point x="2484" y="561"/>
      <point x="2501" y="578"/>
      <point x="2521" y="578" type="curve" smooth="yes"/>
      <point x="3228" y="578" type="line" smooth="yes"/>
      <point x="3271" y="578"/>
      <point x="3305" y="612"/>
      <point x="3305" y="655" type="curve" smooth="yes"/>
      <point x="3305" y="804" type="line" smooth="yes"/>
      <point x="3305" y="847"/>
      <point x="3271" y="881"/>
      <point x="3228" y="881" type="curve" smooth="yes"/>
      <point x="2521" y="881" type="line" smooth="yes"/>
      <point x="2501" y="881"/>
      <point x="2484" y="898"/>
      <point x="2484" y="918" type="curve" smooth="yes"/>
      <point x="2484" y="1018" type="line" smooth="yes"/>
      <point x="2484" y="1038"/>
      <point x="2501" y="1055"/>
      <point x="2521" y="1055" type="curve" smooth="yes"/>
      <point x="3418" y="1055" type="line" smooth="yes"/>
      <point x="3461" y="1055"/>
      <point x="3495" y="1089"/>
      <point x="3495" y="1132" type="curve" smooth="yes"/>
      <point x="3495" y="1361" type="line" smooth="yes"/>
      <point x="3495" y="1403"/>
      <point x="3460" y="1438"/>
      <point x="3418" y="1438" type="curve" smooth="yes"/>
      <point x="1494" y="1438"/>
      <point x="1496" y="1438"/>
      <point x="1405" y="1438" type="curve" smooth="yes"/>
      <point x="874" y="1438"/>
      <point x="164" y="1291"/>
      <point x="164" y="721" type="curve" smooth="yes"/>
      <point x="164" y="70"/>
      <point x="954" y="-1"/>
    </contour>
    <contour>
      <point x="1445" y="376" type="curve" smooth="yes"/>
      <point x="1185" y="376"/>
      <point x="1022" y="454"/>
      <point x="1022" y="721" type="curve" smooth="yes"/>
      <point x="1022" y="988"/>
      <point x="1185" y="1065"/>
      <point x="1445" y="1065" type="curve" smooth="yes"/>
      <point x="1509" y="1065"/>
      <point x="1605" y="1065"/>
      <point x="1657" y="1065" type="curve" smooth="yes"/>
      <point x="1677" y="1065"/>
      <point x="1694" y="1048"/>
      <point x="1694" y="1028" type="curve" smooth="yes"/>
      <point x="1694" y="413" type="line" smooth="yes"/>
      <point x="1694" y="393"/>
      <point x="1677" y="376"/>
      <point x="1657" y="376" type="curve" smooth="yes"/>
      <point x="1605" y="376"/>
      <point x="1509" y="376"/>
    </contour>
  </outline>
</glyph>
<glyph name="circumflex" format="1">
  <advance width="953"/>
  <unicode hex="02C6"/>
  <outline>
    <contour>
      <point x="157.636001587" y="1217.0" type="curve" smooth="yes"/>
      <point x="191.363998413" y="1217.0" type="line" smooth="yes"/>
      <point x="237.224029086" y="1217.0"/>
      <point x="294.799578187" y="1232.13086233"/>
      <point x="334.734288325" y="1254.67773216" type="curve" smooth="yes"/>
      <point x="444.749217021" y="1316.79142396" type="line" smooth="yes"/>
      <point x="464.254600742" y="1327.80403295"/>
      <point x="489.73057822" y="1327.77784505"/>
      <point x="509.213280028" y="1316.72515845" type="curve" smooth="yes"/>
      <point x="618.343313907" y="1254.81485076" type="line" smooth="yes"/>
      <point x="658.243432128" y="1232.17920677"/>
      <point x="715.762351057" y="1217.0"/>
      <point x="761.636001587" y="1217.0" type="curve" smooth="yes"/>
      <point x="795.363998413" y="1217.0" type="line" smooth="yes"/>
      <point x="822.656263312" y="1217.0"/>
      <point x="835.566061907" y="1250.27720699"/>
      <point x="815.414270484" y="1268.68299483" type="curve" smooth="yes"/>
      <point x="651.585729516" y="1418.31700517" type="line" smooth="yes"/>
      <point x="617.071454128" y="1449.84087403"/>
      <point x="565.10786981" y="1470.0"/>
      <point x="518.363998413" y="1470.0" type="curve" smooth="yes"/>
      <point x="434.636001587" y="1470.0" type="line" smooth="yes"/>
      <point x="387.89213019" y="1470.0"/>
      <point x="335.928545872" y="1449.84087403"/>
      <point x="301.414270484" y="1418.31700517" type="curve" smooth="yes"/>
      <point x="137.585729516" y="1268.68299483" type="line" smooth="yes"/>
      <point x="117.433938093" y="1250.27720699"/>
      <point x="130.343736688" y="1217.0"/>
    </contour>
  </outline>
</glyph>
<glyph name="fraction" format="1">
  <advance width="1510"/>
  <unicode hex="2044"/>
  <outline>
    <contour>
      <point x="143" y="-205" type="curve" smooth="yes"/>
      <point x="475" y="-207" type="line" smooth="yes"/>
      <point x="497" y="-207"/>
      <point x="519" y="-194"/>
      <point x="529" y="-174" type="curve" smooth="yes"/>
      <point x="1409" y="1614" type="line" smooth="yes"/>
      <point x="1416" y="1629"/>
      <point x="1405" y="1647"/>
      <point x="1388" y="1647" type="curve" smooth="yes"/>
      <point x="1056" y="1647" type="line" smooth="yes"/>
      <point x="1034" y="1647"/>
      <point x="1013" y="1634"/>
      <point x="1003" y="1614" type="curve" smooth="yes"/>
      <point x="123" y="-172" type="line" smooth="yes"/>
      <point x="115" y="-187"/>
      <point x="126" y="-205"/>
    </contour>
  </outline>
</glyph>
<glyph name="a.alt" format="1">
  <advance width="2150"/>
  <outline>
    <contour>
      <point x="795" y="-41" type="curve" smooth="yes"/>
      <point x="1093" y="-41"/>
      <point x="1406" y="39"/>
      <point x="1529" y="200" type="curve" smooth="yes"/>
      <point x="1540" y="215"/>
      <point x="1560" y="214"/>
      <point x="1570" y="199" type="curve" smooth="yes"/>
      <point x="1659" y="64" type="line" smooth="yes"/>
      <point x="1684" y="25"/>
      <point x="1731" y="0"/>
      <point x="1778" y="0" type="curve" smooth="yes"/>
      <point x="1888" y="0" type="line" smooth="yes"/>
      <point x="1931" y="0"/>
      <point x="1965" y="34"/>
      <point x="1965" y="77" type="curve" smooth="yes"/>
      <point x="1965" y="631" type="line" smooth="yes"/>
      <point x="1965" y="989"/>
      <point x="1492" y="1053"/>
      <point x="1058" y="1053" type="curve" smooth="yes"/>
      <point x="568" y="1053"/>
      <point x="323" y="989"/>
      <point x="265" y="843" type="curve" smooth="yes"/>
      <point x="254" y="816"/>
      <point x="285" y="766"/>
      <point x="315" y="765" type="curve" smooth="yes"/>
      <point x="591" y="753" type="line" smooth="yes"/>
      <point x="752" y="746"/>
      <point x="680" y="733"/>
      <point x="830" y="794" type="curve" smooth="yes"/>
      <point x="887" y="817"/>
      <point x="977" y="829"/>
      <point x="1068" y="829" type="curve" smooth="yes"/>
      <point x="1193" y="829"/>
      <point x="1322" y="801"/>
      <point x="1322" y="719" type="curve" smooth="yes"/>
      <point x="1322" y="526"/>
      <point x="169" y="684"/>
      <point x="169" y="254" type="curve" smooth="yes"/>
      <point x="169" y="57"/>
      <point x="472" y="-41"/>
    </contour>
    <contour>
      <point x="967" y="190" type="curve" smooth="yes"/>
      <point x="888" y="190"/>
      <point x="824" y="215"/>
      <point x="824" y="262" type="curve" smooth="yes"/>
      <point x="824" y="423"/>
      <point x="1099" y="348"/>
      <point x="1305" y="495" type="curve" smooth="yes"/>
      <point x="1312" y="500"/>
      <point x="1322" y="495"/>
      <point x="1322" y="486" type="curve" smooth="yes"/>
      <point x="1322" y="463" type="line" smooth="yes"/>
      <point x="1322" y="285"/>
      <point x="1119" y="190"/>
    </contour>
  </outline>
</glyph>
